<svg width="19" height="19" viewBox="0 0 19 19" fill="none" xmlns="http://www.w3.org/2000/svg">
<path fill-rule="evenodd" clip-rule="evenodd" d="M9.5 18C14.1944 18 18 14.1944 18 9.5C18 4.80558 14.1944 1 9.5 1C4.80558 1 1 4.80558 1 9.5C1 14.1944 4.80558 18 9.5 18Z" fill="white" stroke="#F96446"/>
<path fill-rule="evenodd" clip-rule="evenodd" d="M9.5 14C11.9853 14 14 11.9853 14 9.5C14 7.01472 11.9853 5 9.5 5C7.01472 5 5 7.01472 5 9.5C5 11.9853 7.01472 14 9.5 14Z" fill="#F96446"/>
<mask id="mask0_306_9072" style="mask-type:luminance" maskUnits="userSpaceOnUse" x="5" y="5" width="9" height="9">
<path fill-rule="evenodd" clip-rule="evenodd" d="M9.5 14C11.9853 14 14 11.9853 14 9.5C14 7.01472 11.9853 5 9.5 5C7.01472 5 5 7.01472 5 9.5C5 11.9853 7.01472 14 9.5 14Z" fill="white"/>
</mask>
<g mask="url(#mask0_306_9072)">
</g>
</svg>
