<svg width="14" height="14" viewBox="0 0 14 14" fill="none" xmlns="http://www.w3.org/2000/svg">
<path fill-rule="evenodd" clip-rule="evenodd" d="M12.4817 7.28775C12.6804 7.25878 12.8335 7.07574 12.8335 6.85425C12.8335 6.61262 12.6513 6.41675 12.4265 6.41675L7.5835 6.41675L7.5835 1.57372L7.5795 1.5185C7.55053 1.31985 7.36749 1.16675 7.146 1.16675C6.90437 1.16675 6.7085 1.34896 6.7085 1.57372L6.7085 6.41675L1.57381 6.41675L1.51858 6.42074C1.31994 6.44971 1.16683 6.63276 1.16683 6.85425C1.16683 7.09587 1.34904 7.29175 1.57381 7.29175L6.7085 7.29175L6.7085 12.4264L6.71249 12.4817C6.74146 12.6803 6.92451 12.8334 7.146 12.8334C7.38762 12.8334 7.5835 12.6512 7.5835 12.4264L7.5835 7.29175L12.4265 7.29175L12.4817 7.28775Z" fill="#0B92D3"/>
</svg>
