<?xml version="1.0" encoding="UTF-8"?>
<svg xmlns="http://www.w3.org/2000/svg" xmlns:xlink="http://www.w3.org/1999/xlink" width="48pt" height="17pt" viewBox="0 0 48 17" version="1.1">
<g id="surface1">
<path style=" stroke:none;fill-rule:nonzero;fill:rgb(51.764706%,71.764706%,25.098039%);fill-opacity:1;" d="M 0 9.753906 L 20.308594 9.753906 L 20.308594 16.75 L 0 16.75 Z M 0 9.753906 "/>
<path style=" stroke:none;fill-rule:nonzero;fill:rgb(14.509804%,60.784314%,83.921569%);fill-opacity:1;" d="M 0 0.207031 L 20.308594 0.207031 L 20.308594 7.207031 L 0 7.207031 Z M 0 0.207031 "/>
<path style=" stroke:none;fill-rule:nonzero;fill:rgb(15.294118%,16.078431%,17.647059%);fill-opacity:1;" d="M 40.617188 15.332031 L 40.53125 15.34375 C 40.214844 15.410156 40.097656 15.433594 39.867188 15.433594 C 39.34375 15.433594 38.714844 15.15625 38.714844 13.832031 C 38.714844 13.15625 38.820312 12.25 39.808594 12.25 L 39.820312 12.25 C 39.988281 12.261719 40.175781 12.277344 40.542969 12.390625 L 40.617188 12.414062 Z M 40.785156 8.734375 L 40.617188 8.769531 L 40.617188 11.210938 L 40.472656 11.164062 L 40.429688 11.15625 C 40.265625 11.105469 39.894531 10.996094 39.53125 10.996094 C 37.554688 10.996094 37.140625 12.539062 37.140625 13.835938 C 37.140625 15.617188 38.105469 16.636719 39.785156 16.636719 C 40.5 16.636719 41.019531 16.5625 41.550781 16.378906 C 42.042969 16.21875 42.21875 15.988281 42.21875 15.496094 L 42.21875 8.480469 C 41.742188 8.570312 41.257812 8.65625 40.785156 8.734375 "/>
<path style=" stroke:none;fill-rule:nonzero;fill:rgb(15.294118%,16.078431%,17.647059%);fill-opacity:1;" d="M 46.5 15.371094 L 46.414062 15.398438 L 46.117188 15.476562 C 45.828125 15.550781 45.578125 15.59375 45.382812 15.59375 C 44.917969 15.59375 44.640625 15.359375 44.640625 14.949219 C 44.640625 14.691406 44.757812 14.246094 45.511719 14.246094 L 46.5 14.246094 Z M 45.804688 10.960938 C 45.195312 10.960938 44.570312 11.078125 43.792969 11.324219 L 43.285156 11.480469 L 43.453125 12.664062 L 43.949219 12.5 C 44.46875 12.324219 45.113281 12.207031 45.59375 12.207031 C 45.808594 12.207031 46.472656 12.207031 46.472656 12.953125 L 46.472656 13.277344 L 45.554688 13.277344 C 43.867188 13.277344 43.09375 13.832031 43.09375 15.019531 C 43.09375 16.039062 43.804688 16.648438 45.015625 16.648438 C 45.390625 16.648438 45.90625 16.574219 46.355469 16.460938 L 46.402344 16.460938 L 46.550781 16.488281 C 47.019531 16.574219 47.511719 16.664062 47.992188 16.753906 L 47.992188 12.863281 C 47.992188 11.605469 47.253906 10.960938 45.804688 10.960938 "/>
<path style=" stroke:none;fill-rule:nonzero;fill:rgb(15.294118%,16.078431%,17.647059%);fill-opacity:1;" d="M 34.785156 15.371094 L 34.695312 15.398438 L 34.394531 15.476562 C 34.117188 15.550781 33.863281 15.59375 33.667969 15.59375 C 33.203125 15.59375 32.925781 15.359375 32.925781 14.949219 C 32.925781 14.691406 33.035156 14.246094 33.792969 14.246094 L 34.777344 14.246094 Z M 34.09375 10.960938 C 33.480469 10.960938 32.859375 11.078125 32.082031 11.324219 L 31.574219 11.480469 L 31.742188 12.664062 L 32.242188 12.5 C 32.757812 12.324219 33.402344 12.207031 33.886719 12.207031 C 34.097656 12.207031 34.761719 12.207031 34.761719 12.953125 L 34.761719 13.277344 L 33.839844 13.277344 C 32.160156 13.277344 31.375 13.832031 31.375 15.019531 C 31.375 16.039062 32.09375 16.648438 33.300781 16.648438 C 33.675781 16.648438 34.199219 16.574219 34.640625 16.460938 L 34.691406 16.460938 L 34.839844 16.488281 C 35.3125 16.574219 35.792969 16.664062 36.269531 16.761719 L 36.269531 12.875 C 36.277344 11.601562 35.542969 10.960938 34.09375 10.960938 "/>
<path style=" stroke:none;fill-rule:nonzero;fill:rgb(15.294118%,16.078431%,17.647059%);fill-opacity:1;" d="M 28.429688 10.976562 C 27.667969 10.976562 27.03125 11.234375 26.796875 11.351562 L 26.738281 11.382812 L 26.683594 11.335938 C 26.359375 11.097656 25.882812 10.972656 25.214844 10.972656 C 24.636719 10.972656 24.085938 11.058594 23.488281 11.234375 C 22.976562 11.402344 22.777344 11.65625 22.777344 12.136719 L 22.777344 16.578125 L 24.378906 16.578125 L 24.378906 12.46875 L 24.457031 12.449219 C 24.78125 12.332031 24.980469 12.3125 25.160156 12.3125 C 25.628906 12.3125 25.867188 12.574219 25.867188 13.066406 L 25.867188 16.589844 L 27.445312 16.589844 L 27.445312 13.003906 C 27.445312 12.789062 27.402344 12.664062 27.394531 12.636719 L 27.34375 12.535156 L 27.449219 12.484375 C 27.691406 12.375 27.957031 12.3125 28.234375 12.3125 C 28.550781 12.3125 28.929688 12.449219 28.929688 13.066406 L 28.929688 16.589844 L 30.507812 16.589844 L 30.507812 12.910156 C 30.507812 11.605469 29.832031 10.976562 28.429688 10.976562 "/>
<path style=" stroke:none;fill-rule:nonzero;fill:rgb(15.294118%,16.078431%,17.647059%);fill-opacity:1;" d="M 45.316406 4.773438 C 45.082031 4.773438 44.6875 4.746094 44.382812 4.6875 L 44.292969 4.667969 L 44.292969 2.265625 C 44.292969 2.066406 44.253906 1.941406 44.25 1.925781 L 44.199219 1.824219 L 44.300781 1.777344 C 44.328125 1.765625 44.351562 1.757812 44.382812 1.75 L 44.402344 1.734375 C 44.4375 1.726562 44.46875 1.707031 44.511719 1.699219 C 44.527344 1.6875 44.539062 1.6875 44.550781 1.6875 C 44.910156 1.585938 45.234375 1.601562 45.378906 1.585938 L 45.382812 1.585938 C 46.363281 1.585938 46.480469 2.488281 46.480469 3.167969 C 46.472656 4.492188 45.839844 4.773438 45.316406 4.773438 M 45.3125 0.207031 C 45.300781 0.207031 45.285156 0.207031 45.269531 0.207031 C 44.347656 0.207031 43.398438 0.472656 43.0625 0.980469 C 42.882812 1.230469 42.777344 1.539062 42.773438 1.910156 L 42.773438 4.386719 C 42.773438 4.597656 42.730469 4.675781 42.722656 4.695312 L 42.667969 4.800781 L 39.757812 4.800781 L 39.757812 3.082031 L 39.75 3.082031 C 39.71875 1.265625 38.675781 0.265625 37.175781 0.265625 L 35.710938 0.265625 C 35.652344 0.714844 35.601562 1.023438 35.542969 1.464844 L 37 1.464844 C 37.765625 1.464844 38.171875 2.140625 38.171875 3.179688 L 38.171875 4.910156 L 38.070312 4.851562 C 38.054688 4.84375 37.925781 4.800781 37.722656 4.800781 L 35.203125 4.800781 C 35.160156 5.136719 35.09375 5.5625 35.03125 5.992188 L 42.777344 5.992188 C 43.042969 5.941406 43.347656 5.886719 43.613281 5.84375 C 44.007812 6.042969 44.738281 6.148438 45.238281 6.148438 C 46.921875 6.148438 48.007812 4.984375 48.007812 3.1875 C 48.007812 1.410156 46.949219 0.246094 45.3125 0.207031 "/>
<path style=" stroke:none;fill-rule:nonzero;fill:rgb(15.294118%,16.078431%,17.647059%);fill-opacity:1;" d="M 31.722656 6.722656 L 31.796875 6.722656 C 33.480469 6.722656 34.261719 6.148438 34.261719 4.734375 C 34.261719 3.714844 33.546875 2.90625 32.339844 2.90625 L 30.792969 2.90625 C 30.324219 2.90625 30.050781 2.632812 30.050781 2.167969 C 30.050781 1.859375 30.160156 1.46875 30.921875 1.46875 L 34.3125 1.46875 C 34.386719 1.015625 34.421875 0.730469 34.484375 0.277344 L 30.964844 0.277344 C 29.324219 0.277344 28.5 0.988281 28.5 2.167969 C 28.5 3.34375 29.21875 3.957031 30.425781 3.957031 L 31.972656 3.957031 C 32.4375 3.957031 32.714844 4.335938 32.714844 4.734375 C 32.714844 4.996094 32.597656 5.539062 31.84375 5.539062 L 31.585938 5.539062 L 26.621094 5.527344 L 25.71875 5.527344 C 24.953125 5.527344 24.417969 5.074219 24.417969 4.039062 L 24.417969 3.316406 C 24.417969 2.234375 24.832031 1.558594 25.71875 1.558594 L 27.191406 1.558594 C 27.257812 1.101562 27.300781 0.804688 27.359375 0.371094 L 25.347656 0.371094 C 23.847656 0.371094 22.8125 1.410156 22.777344 3.222656 L 22.777344 4.039062 C 22.8125 5.851562 23.847656 6.71875 25.347656 6.71875 L 26.816406 6.71875 L 29.507812 6.722656 Z M 31.722656 6.722656 "/>
</g>
</svg>
