<svg width="15" height="15" viewBox="0 0 15 15" fill="none" xmlns="http://www.w3.org/2000/svg">
<path fill-rule="evenodd" clip-rule="evenodd" d="M14.0786 1.45321C14.274 1.1911 14.2395 0.803992 13.9845 0.548931C13.7062 0.270682 13.2708 0.254945 13.012 0.513781L7.43555 6.09023L1.85909 0.513781L1.7909 0.454785C1.52878 0.259391 1.14168 0.29387 0.886616 0.548931C0.608368 0.827179 0.592631 1.26257 0.851466 1.52141L6.42792 7.09786L0.514299 13.0115L0.455304 13.0797C0.259909 13.3418 0.294388 13.7289 0.549449 13.984C0.827697 14.2622 1.26309 14.2779 1.52193 14.0191L7.43555 8.10549L13.3492 14.0191L13.4174 14.0781C13.6795 14.2735 14.0666 14.239 14.3216 13.984C14.5999 13.7057 14.6156 13.2703 14.3568 13.0115L8.44317 7.09786L14.0196 1.52141L14.0786 1.45321Z" fill="#717171"/>
</svg>
