<svg width="11" height="10" viewBox="0 0 11 10" fill="none" xmlns="http://www.w3.org/2000/svg">
<path fill-rule="evenodd" clip-rule="evenodd" d="M9.73758 1.0995C9.87127 0.920157 9.84768 0.655295 9.67316 0.480779C9.48278 0.290399 9.18488 0.279631 9.00778 0.456729L5.19238 4.27213L1.37698 0.456729L1.33032 0.416364C1.15098 0.282673 0.886119 0.306264 0.711603 0.480779C0.521223 0.67116 0.510456 0.96906 0.687554 1.14616L4.50295 4.96156L0.456725 9.00779L0.416359 9.05445C0.282669 9.23379 0.306259 9.49865 0.480775 9.67317C0.671155 9.86355 0.969056 9.87431 1.14615 9.69722L5.19238 5.65099L9.23861 9.69722L9.28527 9.73758C9.46461 9.87127 9.72948 9.84768 9.90399 9.67317C10.0944 9.48279 10.1051 9.18489 9.92804 9.00779L5.88181 4.96156L9.69721 1.14616L9.73758 1.0995Z" fill="#717171"/>
</svg>
