<svg width="40" height="40" viewBox="0 0 40 40" fill="none" xmlns="http://www.w3.org/2000/svg">
<path d="M11.0981 14.3117C10.7757 14.3117 10.5381 14.6131 10.6134 14.9266L10.7303 15.413C10.7946 15.6807 10.6298 15.9499 10.362 16.0142L9.96588 16.1093C9.69833 16.1736 9.42931 16.0089 9.36484 15.7414L8.82991 13.5215C8.75434 13.2079 8.99197 12.9062 9.31452 12.9062H15.7266C16.156 12.9062 16.3845 13.413 16.1002 13.7348L15.7392 14.1433C15.6446 14.2504 15.5086 14.3117 15.3657 14.3117H11.0981Z" fill="#FF6446"/>
<path d="M26.3897 24.9567C26.4651 25.2702 26.2275 25.5718 25.905 25.5718H12.1212C11.8907 25.5718 11.6904 25.4138 11.6365 25.1898L10.9895 22.499C10.9252 22.2314 11.0899 21.9623 11.3574 21.8979L11.7549 21.8021C12.0226 21.7375 12.292 21.9024 12.3563 22.1702L12.7444 23.7844C12.7983 24.0084 12.9987 24.1663 13.2291 24.1663H24.121C24.4434 24.1663 24.6811 23.8648 24.6056 23.5512L22.4744 14.6936C22.4205 14.4696 22.2201 14.3117 21.9897 14.3117H20.0792C19.7285 14.3117 19.4874 13.9591 19.6147 13.6323L19.7737 13.2239C19.8483 13.0324 20.0327 12.9062 20.2382 12.9062H23.0976C23.328 12.9062 23.5284 13.0641 23.5823 13.2881L26.3897 24.9567Z" fill="#FF6446"/>
<path d="M25.6106 24.4876C25.6645 24.7116 25.8649 24.8695 26.0953 24.8695H32.1171C32.4385 24.8695 32.6759 24.5698 32.6023 24.2569L31.5368 19.7235C31.5129 19.6219 31.4578 19.5305 31.3792 19.4619L29.0718 17.449C28.9811 17.3698 28.8646 17.3262 28.7442 17.3262H24.5204C24.1979 17.3262 23.9603 17.6277 24.0357 17.9413L24.338 19.1974L25.6106 24.4876Z" stroke="#FF6446" stroke-width="1.22775" stroke-miterlimit="10"/>
<path d="M29.5218 29.4747C30.481 29.1236 30.8886 27.8279 30.4322 26.5807C29.9757 25.3335 28.828 24.607 27.8687 24.9581C26.9095 25.3091 26.5019 26.6048 26.9584 27.8521C27.4148 29.0993 28.5625 29.8258 29.5218 29.4747Z" stroke="#FF6446" stroke-width="1.22775" stroke-miterlimit="10"/>
<path d="M19.2913 29.4747C20.2506 29.1236 20.6582 27.8279 20.2017 26.5807C19.7452 25.3335 18.5975 24.607 17.6383 24.9581C16.679 25.3091 16.2714 26.6048 16.7279 27.8521C17.1844 29.0993 18.332 29.8258 19.2913 29.4747Z" stroke="#FF6446" stroke-width="1.22775" stroke-miterlimit="10"/>
<path d="M12.0038 16.502H7.94531" stroke="#FF6446" stroke-width="1.22775" stroke-miterlimit="10" stroke-linecap="round"/>
<path d="M10.3534 18.9434H6.29492" stroke="#FF6446" stroke-width="1.22775" stroke-miterlimit="10" stroke-linecap="round"/>
<path d="M13.8056 21.3828H9.74707" stroke="#FF6446" stroke-width="1.22775" stroke-miterlimit="10" stroke-linecap="round"/>
<path d="M15.6782 22.845L17.2364 17.8317H13.5449L16.3768 14.6267L16.6544 14.3118L17.8962 12.9064L19.9459 10.5859L19.0429 12.9064L18.4956 14.3118L18.3733 14.6267L17.9853 15.6242H21.6767L15.6782 22.845Z" fill="#FF6446"/>
</svg>
