<svg width="14" height="10" viewBox="0 0 14 10" fill="none" xmlns="http://www.w3.org/2000/svg">
<path d="M3.23836 1.70874C3.07278 1.70874 2.95075 1.86356 2.98944 2.02456L3.02845 2.18689C3.06149 2.32437 2.97681 2.4626 2.83933 2.49563L2.71113 2.52642C2.57373 2.55942 2.43558 2.47485 2.40247 2.33747L2.17185 1.38043C2.13304 1.21939 2.25507 1.06445 2.42072 1.06445H5.26437C5.4849 1.06445 5.60223 1.3247 5.45621 1.48996L5.33932 1.62225C5.29073 1.67725 5.22087 1.70874 5.14748 1.70874H3.23836Z" fill="#FF6446"/>
<path d="M10.2047 6.55482C10.2435 6.71583 10.1214 6.8707 9.95582 6.8707H3.69344C3.5751 6.8707 3.47219 6.7896 3.44453 6.67455L3.15942 5.48875C3.12638 5.35134 3.21095 5.21315 3.34835 5.18003L3.47713 5.149C3.61464 5.11586 3.75296 5.20051 3.78602 5.33803L3.95243 6.03025C3.98009 6.1453 4.08301 6.22641 4.20134 6.22641H9.13797C9.30358 6.22641 9.42561 6.07154 9.38686 5.91052L8.42307 1.90486C8.3954 1.78982 8.29249 1.70874 8.17418 1.70874H7.36017C7.18006 1.70874 7.05626 1.52769 7.12161 1.35985L7.17313 1.22756C7.21142 1.12922 7.30614 1.06445 7.41168 1.06445H8.68207C8.80039 1.06445 8.90329 1.14554 8.93097 1.26057L10.2047 6.55482Z" fill="#FF6446"/>
<path d="M9.84922 6.35178C9.8769 6.46682 9.9798 6.54791 10.0981 6.54791H12.8023C12.9674 6.54791 13.0893 6.39401 13.0516 6.23333L12.5731 4.19745C12.5608 4.1453 12.5325 4.09832 12.4921 4.06311L11.4488 3.15293C11.4022 3.11226 11.3424 3.08984 11.2805 3.08984H9.38936C9.22375 3.08984 9.10172 3.24472 9.14046 3.40573L9.27087 3.94768L9.84922 6.35178Z" stroke="#FF6446" stroke-width="0.630518" stroke-miterlimit="10"/>
<path d="M11.6478 8.65999C12.0875 8.49905 12.2744 7.90507 12.0651 7.3333C11.8559 6.76153 11.3297 6.4285 10.89 6.58944C10.4502 6.75039 10.2634 7.34437 10.4726 7.91613C10.6819 8.4879 11.208 8.82094 11.6478 8.65999Z" stroke="#FF6446" stroke-width="0.630518" stroke-miterlimit="10"/>
<path d="M6.95834 8.65999C7.39809 8.49905 7.58495 7.90507 7.37569 7.3333C7.16643 6.76153 6.6403 6.4285 6.20054 6.58944C5.76079 6.75039 5.57394 7.34437 5.7832 7.91613C5.99246 8.4879 6.51859 8.82094 6.95834 8.65999Z" stroke="#FF6446" stroke-width="0.630518" stroke-miterlimit="10"/>
<path d="M3.61834 2.71289H1.75781" stroke="#FF6446" stroke-width="0.630518" stroke-miterlimit="10" stroke-linecap="round"/>
<path d="M2.86053 3.83203H1" stroke="#FF6446" stroke-width="0.630518" stroke-miterlimit="10" stroke-linecap="round"/>
<path d="M4.44256 4.94922H2.58203" stroke="#FF6446" stroke-width="0.630518" stroke-miterlimit="10" stroke-linecap="round"/>
<path d="M5.30219 5.61991L6.0165 3.32167H4.32422L5.62242 1.8524L5.74969 1.70804L6.31898 1.06375L7.25862 0L6.84463 1.06375L6.59375 1.70804L6.53767 1.8524L6.3598 2.30969H8.05208L5.30219 5.61991Z" fill="#FF6446"/>
</svg>
