<svg width="17" height="12" viewBox="0 0 17 12" fill="none" xmlns="http://www.w3.org/2000/svg">
<path d="M3.82366 2.31123C3.60871 2.31123 3.45031 2.51221 3.50053 2.7212L3.55117 2.93193C3.59406 3.11041 3.48413 3.28985 3.30566 3.33272L3.13925 3.37269C2.96088 3.41553 2.78153 3.30574 2.73856 3.12741L2.43918 1.88503C2.3888 1.67598 2.54722 1.47485 2.76225 1.47485H6.45371C6.73999 1.47485 6.8923 1.81269 6.70274 2.02722L6.551 2.19896C6.48792 2.27035 6.39724 2.31123 6.30197 2.31123H3.82366Z" fill="#FF6446"/>
<path d="M12.8682 8.60212C12.9185 8.81114 12.7601 9.01218 12.5451 9.01218H4.41565C4.26203 9.01218 4.12844 8.9069 4.09253 8.75754L3.72242 7.21822C3.67953 7.03983 3.78932 6.86044 3.96768 6.81745L4.13485 6.77717C4.31335 6.73415 4.49291 6.84404 4.53583 7.02256L4.75186 7.92115C4.78777 8.07051 4.92136 8.1758 5.07498 8.1758H11.4834C11.6984 8.1758 11.8568 7.97475 11.8065 7.76573L10.5554 2.56582C10.5195 2.41649 10.3859 2.31123 10.2323 2.31123H9.17558C8.94177 2.31123 8.78107 2.0762 8.8659 1.85832L8.93277 1.68659C8.98249 1.55893 9.10545 1.47485 9.24245 1.47485H10.8916C11.0452 1.47485 11.1788 1.58011 11.2147 1.72944L12.8682 8.60212Z" fill="#FF6446"/>
<path d="M12.4072 8.33944C12.4431 8.48877 12.5767 8.59403 12.7303 8.59403H16.2407C16.455 8.59403 16.6133 8.39425 16.5642 8.18567L15.9431 5.5428C15.9272 5.47512 15.8904 5.41412 15.838 5.36841L14.4836 4.18688C14.4231 4.13407 14.3455 4.10498 14.2652 4.10498H11.8102C11.5952 4.10498 11.4368 4.30603 11.4871 4.51505L11.6564 5.21857L12.4072 8.33944Z" stroke="#FF6446" stroke-width="0.818501" stroke-miterlimit="10"/>
<path d="M14.7412 11.3359C15.3121 11.127 15.5547 10.3559 15.283 9.6137C15.0114 8.87147 14.3284 8.43914 13.7575 8.64807C13.1867 8.857 12.9441 9.62807 13.2157 10.3703C13.4874 11.1125 14.1704 11.5449 14.7412 11.3359Z" stroke="#FF6446" stroke-width="0.818501" stroke-miterlimit="10"/>
<path d="M8.6536 11.3354C9.22446 11.1265 9.46702 10.3554 9.19537 9.61321C8.92372 8.87098 8.24073 8.43865 7.66987 8.64758C7.09901 8.85651 6.85645 9.62758 7.12809 10.3698C7.39974 11.112 8.08273 11.5444 8.6536 11.3354Z" stroke="#FF6446" stroke-width="0.818501" stroke-miterlimit="10"/>
<path d="M4.31708 3.61548H1.90186" stroke="#FF6446" stroke-width="0.818501" stroke-miterlimit="10" stroke-linecap="round"/>
<path d="M3.33417 5.06763H0.918945" stroke="#FF6446" stroke-width="0.818501" stroke-miterlimit="10" stroke-linecap="round"/>
<path d="M5.38935 6.51978H2.97412" stroke="#FF6446" stroke-width="0.818501" stroke-miterlimit="10" stroke-linecap="round"/>
<path d="M6.50391 7.38943L7.43119 4.40599H5.23438L6.91963 2.49867L7.08483 2.31127L7.82386 1.47489L9.04364 0.0939941L8.50623 1.47489L8.18055 2.31127L8.10775 2.49867L7.87684 3.09229H10.0737L6.50391 7.38943Z" fill="#FF6446"/>
</svg>
