<svg width="65" height="66" viewBox="0 0 65 66" fill="none" xmlns="http://www.w3.org/2000/svg">
<path fill-rule="evenodd" clip-rule="evenodd" d="M15.3734 17.4094C15.3734 8.07061 22.944 0.5 32.2828 0.5C41.6216 0.5 49.1922 8.07061 49.1922 17.4094C49.1922 21.4021 47.8084 25.0716 45.4942 27.9644L45.7459 28.1035C57.3008 34.6331 64.5633 42.3186 64.5633 51.2278C64.5633 70.2571 0 70.2571 0 51.2278C0 42.2321 7.38546 34.4991 19.0685 27.9609C16.756 25.0686 15.3734 21.4005 15.3734 17.4094ZM32.2888 31.2438C29.6235 31.1924 26.9899 30.3722 24.3737 28.7617C20.7913 26.2614 18.4477 22.1088 18.4477 17.4088C18.4477 9.76794 24.6418 3.5738 32.2827 3.5738C39.9235 3.5738 46.1177 9.76794 46.1177 17.4088C46.1177 25.0476 39.9269 31.2405 32.2888 31.2438ZM22.6773 31.3277C22.4156 31.1651 22.1545 30.9959 21.8941 30.8202L21.1669 30.3124L20.0223 30.9537C9.56461 36.9225 3.0738 43.8317 3.0738 51.2279C3.0738 66.1579 61.4882 66.1579 61.4882 51.2279C61.4882 44.0217 55.3167 37.2643 45.2612 31.3724L44.05 30.6783L43.9238 30.7636C40.2409 33.0029 36.6399 34.1944 33.1293 34.3114L32.6405 34.3152C32.5216 34.3176 32.4023 34.3189 32.2828 34.3189C28.7151 34.3189 25.4054 33.214 22.6773 31.3277Z" fill="#F96446"/>
</svg>
