<svg width="64" height="64" viewBox="0 0 64 64" fill="none" xmlns="http://www.w3.org/2000/svg">
<path d="M19.6907 0.5H9.22304C4.40544 0.5 0.5 4.40544 0.5 9.22304V19.6907C0.5 24.5083 4.40544 28.4137 9.22304 28.4137H28.4137V9.22304C28.4137 4.40544 24.5083 0.5 19.6907 0.5Z" fill="black"/>
<path d="M19.6907 63.3059H9.22304C4.40544 63.3059 0.5 59.4004 0.5 54.5828V44.1152C0.5 39.2976 4.40544 35.3922 9.22304 35.3922H28.4137V54.5828C28.4137 59.4004 24.5083 63.3059 19.6907 63.3059Z" fill="black"/>
<path d="M54.5828 0.5H44.1152C39.2976 0.5 35.3922 4.40544 35.3922 9.22304V28.4137H54.5828C59.4004 28.4137 63.3059 24.5083 63.3059 19.6907V9.22304C63.3059 4.40544 59.4004 0.5 54.5828 0.5Z" fill="black"/>
<path fill-rule="evenodd" clip-rule="evenodd" d="M49.349 35.3922C41.6409 35.3922 35.3922 41.6409 35.3922 49.349C35.3922 57.0572 41.6409 63.3059 49.349 63.3059C52.5745 63.3059 55.5445 62.2117 57.908 60.3743C57.9149 60.3818 57.9221 60.3893 57.9296 60.3968L60.5218 62.989L60.7634 63.1909C61.4433 63.6619 62.3834 63.5946 62.989 62.989C63.6703 62.3077 63.6703 61.2031 62.989 60.5218L61.0503 58.583L60.3774 57.9039C62.213 55.5411 63.3059 52.5727 63.3059 49.349C63.3059 41.6409 57.0572 35.3922 49.349 35.3922ZM49.349 38.8814C55.1301 38.8814 59.8167 43.5679 59.8167 49.349C59.8167 55.1301 55.1301 59.8167 49.349 59.8167C43.5679 59.8167 38.8814 55.1301 38.8814 49.349C38.8814 43.5679 43.5679 38.8814 49.349 38.8814Z" fill="black"/>
</svg>
