<svg width="19" height="19" viewBox="0 0 19 19" fill="none" xmlns="http://www.w3.org/2000/svg">
<path d="M5.97217 0H2.97217C1.59146 0 0.472168 1.11929 0.472168 2.5V5.5C0.472168 6.88071 1.59146 8 2.97217 8H8.47217V2.5C8.47217 1.11929 7.35288 0 5.97217 0Z" fill="#F96446"/>
<path d="M5.97217 18H2.97217C1.59146 18 0.472168 16.8807 0.472168 15.5V12.5C0.472168 11.1193 1.59146 10 2.97217 10H8.47217V15.5C8.47217 16.8807 7.35288 18 5.97217 18Z" fill="#F96446"/>
<path d="M15.9722 0H12.9722C11.5915 0 10.4722 1.11929 10.4722 2.5V8H15.9722C17.3529 8 18.4722 6.88071 18.4722 5.5V2.5C18.4722 1.11929 17.3529 0 15.9722 0Z" fill="#F96446"/>
<path fill-rule="evenodd" clip-rule="evenodd" d="M14.4722 10C12.263 10 10.4722 11.7909 10.4722 14C10.4722 16.2091 12.263 18 14.4722 18C15.3966 18 16.2478 17.6864 16.9251 17.1598C16.9271 17.162 16.9292 17.1641 16.9313 17.1663L17.6742 17.9092L17.7435 17.967C17.9384 18.102 18.2078 18.0828 18.3814 17.9092C18.5766 17.7139 18.5766 17.3973 18.3814 17.2021L17.8257 16.6464L17.6329 16.4518C18.1589 15.7746 18.4722 14.9239 18.4722 14C18.4722 11.7909 16.6813 10 14.4722 10ZM14.4722 11C16.129 11 17.4722 12.3431 17.4722 14C17.4722 15.6569 16.129 17 14.4722 17C12.8153 17 11.4722 15.6569 11.4722 14C11.4722 12.3431 12.8153 11 14.4722 11Z" fill="#F96446"/>
</svg>
