<svg width="21" height="19" viewBox="0 0 21 19" fill="none" xmlns="http://www.w3.org/2000/svg">
<path fill-rule="evenodd" clip-rule="evenodd" d="M10.5003 18.27C9.70738 18.27 8.71587 17.852 7.4691 16.992C6.39072 16.2483 5.2145 15.2181 4.1571 14.0913C2.26065 12.0709 0 9.0311 0 6.0237C0 2.70222 2.70222 0 6.0237 0C7.17384 0 8.29266 0.32584 9.2592 0.9423C9.57077 1.14074 9.8648 1.36875 10.1331 1.62L10.3302 1.8126L10.4994 1.9935L10.6695 1.8126C10.862 1.61561 11.07 1.4303 11.2878 1.2618L11.5101 1.0971L11.7414 0.9423C12.707 0.32584 13.8259 0 14.9769 0C18.2979 0 20.9997 2.70222 20.9997 6.0237C20.9997 7.41239 20.5673 8.90582 19.7145 10.4625C19.0095 11.7473 18.013 13.0721 16.8327 14.2938C14.5358 16.6721 11.991 18.27 10.5003 18.27ZM6.0237 0.9999C3.25357 0.9999 0.9999 3.25357 0.9999 6.0237C0.9999 8.1437 2.34373 10.6969 4.8861 13.4073C5.89573 14.4835 7.01474 15.4645 8.037 16.1694C9.0803 16.8895 9.9321 17.2701 10.5003 17.2701C11.6983 17.2701 14.059 15.7262 16.1136 13.599C17.2346 12.4384 18.1764 11.1877 18.837 9.9819C19.6086 8.57375 19.9998 7.24202 19.9998 6.0237C19.9998 3.25357 17.7465 0.9999 14.9769 0.9999C14.1176 0.9999 13.2742 1.21744 12.5379 1.629L12.2976 1.773L12.0861 1.9143C11.9 2.04546 11.7213 2.19021 11.5551 2.3445L11.3994 2.4966L10.4985 3.4569L9.6156 2.5119C9.3456 2.23558 9.04461 1.99121 8.721 1.7856C7.91534 1.27159 6.98263 0.9999 6.0237 0.9999Z" fill="#F97446"/>
</svg>
