<svg width="62" height="66" viewBox="0 0 62 66" fill="none" xmlns="http://www.w3.org/2000/svg">
<path fill-rule="evenodd" clip-rule="evenodd" d="M3.56117 23.0429L27.8317 1.46909C29.6314 -0.130648 32.3434 -0.130648 34.1431 1.46909L58.4136 23.0429C60.1037 24.5452 61.0707 26.6985 61.0707 28.9598V54.6158C61.0707 60.7369 56.1085 65.6991 49.9874 65.6991H11.9874C5.86623 65.6991 0.904053 60.7369 0.904053 54.6158V28.9598C0.904053 26.6985 1.87106 24.5452 3.56117 23.0429ZM56.3098 25.4097L32.0393 3.83589C31.4394 3.30264 30.5354 3.30264 29.9355 3.83589L5.66499 25.4097C4.65092 26.311 4.07072 27.6031 4.07072 28.9598V54.6158C4.07072 58.988 7.61513 62.5324 11.9874 62.5324H49.9874C54.3596 62.5324 57.904 58.988 57.904 54.6158V28.9598C57.904 27.6031 57.3238 26.311 56.3098 25.4097ZM35.1991 52.9705C33.8691 53.493 32.4124 53.7543 30.8291 53.7543C29.2457 53.7543 27.7891 53.493 26.4591 52.9705C25.1291 52.448 23.9732 51.7276 22.9916 50.8093C22.0099 49.891 21.2499 48.7826 20.7116 47.4843C20.1732 46.186 19.9041 44.7451 19.9041 43.1618C19.9041 41.4201 20.2049 39.8051 20.8066 38.3168C21.4082 36.8285 22.1207 35.4035 22.9441 34.0418L32.1116 19.2693H36.0541L26.6016 33.9468L26.6966 34.0418C27.2032 33.6618 27.9157 33.361 28.8341 33.1393C29.7524 32.9176 30.6391 32.8068 31.4941 32.8068C32.9507 32.8068 34.3045 33.0601 35.5553 33.5668C36.8061 34.0735 37.8907 34.778 38.8091 35.6805C39.7274 36.583 40.4478 37.6755 40.9703 38.958C41.4928 40.2405 41.7541 41.6418 41.7541 43.1618C41.7541 44.7451 41.4849 46.186 40.9466 47.4843C40.4082 48.7826 39.6482 49.891 38.6666 50.8093C37.6849 51.7276 36.5291 52.448 35.1991 52.9705ZM27.7891 50.263C28.7074 50.6589 29.7207 50.8568 30.8291 50.8568C31.9374 50.8568 32.9507 50.6589 33.8691 50.263C34.7874 49.8672 35.5791 49.3289 36.2441 48.648C36.9091 47.9672 37.4236 47.1597 37.7878 46.2255C38.152 45.2914 38.3341 44.2701 38.3341 43.1618C38.3341 42.0851 38.1599 41.0797 37.8116 40.1455C37.4632 39.2114 36.9645 38.4039 36.3153 37.723C35.6661 37.0422 34.8745 36.5118 33.9403 36.1318C33.0061 35.7518 31.9691 35.5618 30.8291 35.5618C29.6891 35.5618 28.652 35.7518 27.7178 36.1318C26.7836 36.5118 25.992 37.0422 25.3428 37.723C24.6936 38.4039 24.1949 39.2114 23.8466 40.1455C23.4982 41.0797 23.3241 42.0851 23.3241 43.1618C23.3241 44.2701 23.5061 45.2914 23.8703 46.2255C24.2345 47.1597 24.7491 47.9672 25.4141 48.648C26.0791 49.3289 26.8707 49.8672 27.7891 50.263Z" fill="#F96446"/>
</svg>
