<svg xmlns="http://www.w3.org/2000/svg" width="16" height="16" viewBox="0 0 16 16">
  <g id="info_bold" data-name="info bold" opacity="0.4">
    <g id="info" transform="translate(0 0)">
      <path id="Combined_Shape" data-name="Combined Shape" d="M2.343,13.657A8,8,0,1,1,13.657,2.343,8,8,0,1,1,2.343,13.657ZM1.454,8A6.546,6.546,0,1,0,8,1.454,6.553,6.553,0,0,0,1.454,8Zm5.824,2.994-.005-.084V8a.727.727,0,0,1,1.45-.084l0,.084v2.91a.727.727,0,0,1-1.449.084Zm-.005-5.9a.728.728,0,0,1,.643-.723l.092,0a.727.727,0,0,1,.085,1.449L8,5.818A.728.728,0,0,1,7.273,5.091Z"/>
    </g>
  </g>
</svg>
