<svg width="16" height="14" viewBox="0 0 16 14" fill="none" xmlns="http://www.w3.org/2000/svg">
<path d="M0.584299 6.75388L3.18304 8.55543C3.43194 8.72779 3.53519 9.03096 3.44018 9.30997L2.447 12.2297C2.02338 13.4754 3.5165 14.5018 4.61955 13.7365L7.22071 11.9323C7.46924 11.7598 7.80317 11.7598 8.05175 11.9323L10.6529 13.7365C11.7583 14.5036 13.2482 13.4725 12.8255 12.2299L11.8323 9.30997C11.7373 9.03113 11.8405 8.72779 12.0894 8.55543L14.6882 6.75388C15.7936 5.98724 15.2272 4.31562 13.8585 4.31562H10.6439C10.3369 4.31562 10.0666 4.12814 9.97158 3.84912L8.9791 0.931363C8.55701 -0.309565 6.71597 -0.311344 6.29327 0.931363L5.30079 3.84912C5.20579 4.12814 4.93555 4.31562 4.62845 4.31562H1.41384C0.0425127 4.31557 -0.518983 5.98875 0.584299 6.75388Z" fill="black"/>
</svg>