<svg width="17" height="16" viewBox="0 0 17 16" fill="none" xmlns="http://www.w3.org/2000/svg">
<path d="M1.5843 7.75388L4.18304 9.55543C4.43194 9.72779 4.53519 10.031 4.44018 10.31L3.447 13.2297C3.02338 14.4754 4.5165 15.5018 5.61955 14.7365L8.22071 12.9323C8.46924 12.7598 8.80317 12.7598 9.05175 12.9323L11.6529 14.7365C12.7583 15.5036 14.2482 14.4725 13.8255 13.2299L12.8323 10.31C12.7373 10.0311 12.8405 9.72779 13.0894 9.55543L15.6882 7.75388C16.7936 6.98724 16.2272 5.31562 14.8585 5.31562H11.6439C11.3369 5.31562 11.0666 5.12814 10.9716 4.84912L9.9791 1.93136C9.55701 0.690435 7.71597 0.688656 7.29327 1.93136L6.30079 4.84912C6.20579 5.12814 5.93555 5.31562 5.62845 5.31562H2.41384C1.04251 5.31557 0.481017 6.98875 1.5843 7.75388ZM2.41398 5.98863H5.62859C6.24204 5.98863 6.78182 5.61434 6.9715 5.05715L7.96398 2.13939C8.1758 1.51699 9.09704 1.51762 9.30862 2.13939L10.3011 5.05715C10.4908 5.61434 11.0306 5.98863 11.644 5.98863H14.8586C15.544 5.98863 15.8278 6.82515 15.2738 7.20932L12.675 9.01087C12.1786 9.35509 11.9721 9.96077 12.1618 10.5178L13.1549 13.4377C13.3667 14.0597 12.621 14.5763 12.0674 14.1919L9.46629 12.3877C8.96989 12.0433 8.30272 12.0436 7.80631 12.3877L5.20515 14.1919C4.65134 14.5771 3.90604 14.0593 4.11767 13.4375L5.11085 10.5178C5.30053 9.96081 5.09398 9.35514 4.59758 9.01087L1.99884 7.20932C1.44433 6.82484 1.72925 5.98863 2.41398 5.98863Z" fill="black" stroke="black" stroke-width="0.25"/>
</svg>