<svg width="18" height="16" viewBox="0 0 18 16" fill="none" xmlns="http://www.w3.org/2000/svg">
<path fill-rule="evenodd" clip-rule="evenodd" d="M12.7306 0.111816C15.4986 0.111816 17.75 2.36321 17.75 5.13127C17.75 6.29245 17.3873 7.53688 16.6784 8.8306C16.0917 9.90113 15.2618 11.0041 14.2771 12.0235C12.3924 13.9746 10.2604 15.3371 9 15.3371C8.33218 15.3371 7.49176 14.974 6.47422 14.272C5.57241 13.6499 4.59371 12.7924 3.71417 11.8549C1.71887 9.72816 0.25 7.34949 0.25 5.13123C0.25 2.36318 2.50138 0.111816 5.26945 0.111816C6.22804 0.111816 7.16066 0.383357 7.96582 0.897025C8.22612 1.06309 8.46978 1.25212 8.69411 1.46146L8.85869 1.62224L8.99973 1.77321L9.14125 1.62229C9.30212 1.45779 9.47425 1.30434 9.65651 1.16305L9.8421 1.02586L10.0342 0.897027C10.8393 0.383358 11.7719 0.111816 12.7306 0.111816Z" fill="black"/>
</svg>
