<svg width="14" height="12" viewBox="0 0 14 12" fill="none" xmlns="http://www.w3.org/2000/svg">
<path fill-rule="evenodd" clip-rule="evenodd" d="M9.37767 0.0932617C11.4575 0.0932617 13.1492 1.78492 13.1492 3.86479C13.1492 4.73728 12.8767 5.67232 12.344 6.6444C11.9032 7.44878 11.2796 8.2775 10.5397 9.0435C9.1236 10.5095 7.52166 11.5333 6.5746 11.5333C6.07281 11.5333 5.44133 11.2605 4.67677 10.733C3.99916 10.2655 3.26378 9.62126 2.60292 8.91682C1.10369 7.31882 0 5.53152 0 3.86476C0 1.7849 1.69165 0.0932617 3.77153 0.0932617C4.49179 0.0932617 5.19255 0.297292 5.79753 0.683253C5.99311 0.808033 6.1762 0.950064 6.34476 1.10736L6.46842 1.22816L6.57439 1.34161L6.68073 1.2282C6.8016 1.1046 6.93094 0.9893 7.06789 0.88314L7.20733 0.780057L7.35166 0.683255C7.95661 0.297293 8.65737 0.0932617 9.37767 0.0932617ZM9.37751 0.719261C8.83649 0.719261 8.30944 0.856981 7.85063 1.11331L7.70029 1.20312L7.56778 1.2918C7.44944 1.37516 7.33711 1.46643 7.23537 1.56094L7.13733 1.65636L6.57337 2.25777L6.02059 1.66579C5.85215 1.49354 5.66432 1.34094 5.46061 1.21098C4.95637 0.889286 4.37248 0.719261 3.77137 0.719261C2.03731 0.719261 0.625999 2.13056 0.625999 3.86461C0.625999 5.21436 1.49879 6.82481 3.05942 8.48826C3.69142 9.16192 4.3934 9.77675 5.03218 10.2175C5.71092 10.6857 6.23244 10.907 6.57444 10.907C7.29459 10.907 8.7656 9.97856 10.0892 8.60833C10.7923 7.88042 11.3822 7.09618 11.7947 6.34334C12.281 5.45598 12.5229 4.62225 12.5229 3.86463C12.5229 2.13058 11.1116 0.719261 9.37751 0.719261Z" fill="black"/>
</svg>