<svg width="22" height="22" viewBox="0 0 22 22" fill="none" xmlns="http://www.w3.org/2000/svg">
<path fill-rule="evenodd" clip-rule="evenodd" d="M11 0C4.93281 0 0 4.93281 0 11C0 17.0672 4.93281 22 11 22C17.0672 22 22 17.0672 22 11C22 4.93281 17.0672 0 11 0Z" fill="#0B92D3"/>
<path fill-rule="evenodd" clip-rule="evenodd" d="M16.3193 7.29189C16.5857 7.5583 16.5857 7.99658 16.3193 8.26299L9.87402 14.7083C9.74082 14.8415 9.56465 14.9103 9.38848 14.9103C9.2123 14.9103 9.03613 14.8415 8.90293 14.7083L5.68027 11.4856C5.41387 11.2192 5.41387 10.781 5.68027 10.5146C5.94668 10.2481 6.38496 10.2481 6.65137 10.5146L9.38848 13.2517L15.3482 7.29189C15.6146 7.02119 16.0529 7.02119 16.3193 7.29189Z" fill="white"/>
</svg>