<svg width="18" height="18" viewBox="0 0 18 18" fill="none" xmlns="http://www.w3.org/2000/svg">
<path fill-rule="evenodd" clip-rule="evenodd" d="M9 0C4.03594 0 0 4.03594 0 9C0 13.9641 4.03594 18 9 18C13.9641 18 18 13.9641 18 9C18 4.03594 13.9641 0 9 0Z" fill="#0B92D3"/>
<path fill-rule="evenodd" clip-rule="evenodd" d="M13.3528 5.96494C13.5708 6.18291 13.5708 6.5415 13.3528 6.75947L8.07935 12.0329C7.97036 12.1419 7.82622 12.1981 7.68208 12.1981C7.53794 12.1981 7.3938 12.1419 7.28481 12.0329L4.6481 9.39619C4.43013 9.17822 4.43013 8.81963 4.6481 8.60166C4.86606 8.38369 5.22466 8.38369 5.44263 8.60166L7.68208 10.8411L12.5583 5.96494C12.7762 5.74346 13.1348 5.74346 13.3528 5.96494Z" fill="white"/>
</svg>
