<svg xmlns="http://www.w3.org/2000/svg" width="10.65" height="15.662" viewBox="0 0 10.65 15.662">
  <path id="Path_206500" data-name="Path 206500" d="M27.33,2.126A.626.626,0,0,0,26.7,1.5h-9.4a.626.626,0,0,0-.626.626V16.536a.626.626,0,0,0,1.07.443l1.123-1.123L20,16.979a.626.626,0,0,0,.886,0l1.123-1.123,1.123,1.123a.626.626,0,0,0,.886,0l1.123-1.123,1.123,1.123a.626.626,0,0,0,1.07-.443V2.126Zm-.626,0h-9.4V16.536l1.566-1.566,1.566,1.566,1.566-1.566,1.566,1.566,1.566-1.566L26.7,16.536V2.126ZM18.873,13.4h6.265a.313.313,0,1,0,0-.626H18.873a.313.313,0,0,0,0,.626Zm0-1.566h6.265a.313.313,0,1,0,0-.626H18.873a.313.313,0,1,0,0,.626ZM23.418,7.4a1.08,1.08,0,1,0,1.08,1.08A1.081,1.081,0,0,0,23.418,7.4Zm-.008-3.188L20.094,8.752a.313.313,0,0,0,.506.37l3.317-4.537a.313.313,0,0,0-.506-.37Zm.008,3.814a.454.454,0,1,1-.454.454A.454.454,0,0,1,23.418,8.03ZM20.592,3.774a1.08,1.08,0,1,0,1.08,1.08A1.081,1.081,0,0,0,20.592,3.774Zm0,.626a.454.454,0,1,1-.454.454A.454.454,0,0,1,20.592,4.4Z" transform="translate(-16.68 -1.5)" fill="#fb803d" fill-rule="evenodd"/>
</svg>
