<?xml version="1.0" standalone="no"?>
<!DOCTYPE svg PUBLIC "-//W3C//DTD SVG 20010904//EN"
 "http://www.w3.org/TR/2001/REC-SVG-20010904/DTD/svg10.dtd">
<svg version="1.0" xmlns="http://www.w3.org/2000/svg"
 width="434.000000pt" height="434.000000pt" viewBox="0 0 434.000000 434.000000"
 preserveAspectRatio="xMidYMid meet">
<metadata>
Created by potrace 1.14, written by Peter Selinger 2001-2017
</metadata>
<g transform="translate(0.000000,434.000000) scale(0.100000,-0.100000)"
fill="#000000" stroke="none">
<path d="M0 2170 l0 -2170 2170 0 2170 0 0 2170 0 2170 -643 0 -642 0 -331
-332 c-181 -183 -391 -398 -465 -478 -206 -221 -450 -493 -446 -497 2 -2 46 4
98 14 138 26 420 23 600 -5 304 -48 607 -171 841 -344 112 -82 289 -262 370
-378 280 -398 376 -871 272 -1339 -79 -352 -271 -682 -527 -901 l-82 -70
-1184 0 -1184 0 -141 143 c-139 140 -220 245 -299 387 -86 155 -162 400 -187
605 -17 132 -7 389 19 519 85 417 332 896 694 1349 168 210 599 678 986 1070
l254 257 -1172 0 -1171 0 0 -2170z m1612 1993 c-9 -23 -35 -23 -45 1 -10 26
21 50 40 31 8 -8 10 -21 5 -32z m2063 -111 c-3 -8 -5 -19 -5 -26 0 -20 -44
-13 -56 9 -15 28 20 59 48 41 10 -6 16 -17 13 -24z m-3083 -157 c11 -14 27
-25 37 -25 29 0 31 -11 9 -40 -11 -16 -18 -37 -16 -48 5 -17 0 -19 -53 -18
-56 1 -59 2 -59 26 0 14 -7 36 -16 48 -15 22 -14 23 15 33 17 6 36 20 42 30
13 25 17 24 41 -6z m692 -180 c3 -8 13 -15 22 -15 12 0 15 -6 10 -22 -3 -13
-6 -29 -6 -35 0 -8 -15 -13 -40 -13 -33 0 -40 3 -40 19 0 11 -4 23 -10 26 -15
9 -12 25 4 25 7 0 19 7 26 15 7 8 16 15 20 15 4 0 10 -7 14 -15z m1720 -245
c30 -11 33 -22 11 -40 -8 -7 -15 -28 -15 -46 0 -32 -1 -33 -27 -23 -17 6 -36
6 -55 0 -27 -9 -28 -9 -28 20 0 16 -7 40 -15 53 -15 23 -15 24 14 34 16 6 35
21 42 33 l12 23 17 -22 c10 -12 30 -26 44 -32z m-2339 -328 c-3 -8 -5 -20 -5
-27 0 -21 -52 -11 -61 11 -10 27 28 56 53 40 10 -6 16 -17 13 -24z m3262 -202
c-13 -34 -49 -35 -59 -1 -10 32 15 52 47 37 19 -8 20 -14 12 -36z"/>
<path d="M2089 2530 c-218 -20 -453 -110 -633 -243 -238 -177 -400 -437 -451
-724 -19 -109 -19 -312 0 -415 41 -233 162 -456 340 -627 170 -163 366 -266
605 -317 117 -25 362 -25 480 -1 588 124 980 585 980 1152 0 306 -110 580
-319 799 -259 270 -630 409 -1002 376z m61 -85 c-315 -63 -600 -293 -720 -582
-96 -229 -90 -509 14 -729 130 -275 374 -470 675 -541 58 -14 118 -32 133 -39
20 -11 33 -12 47 -4 26 13 107 13 133 -1 15 -8 23 -8 32 2 8 9 8 10 -3 4 -9
-5 -12 -4 -7 3 4 7 22 12 40 12 19 0 76 11 127 24 351 92 632 364 718 696 l20
75 0 -56 c1 -77 -24 -206 -59 -302 -78 -211 -228 -402 -413 -525 -88 -59 -109
-70 -78 -43 13 12 21 21 18 21 -3 0 -13 3 -23 7 -12 4 -15 3 -10 -5 4 -7 3
-12 -3 -12 -15 0 -85 34 -89 43 -2 4 -16 7 -30 8 -27 0 -27 0 -4 10 13 5 28 7
33 3 17 -10 9 3 -13 22 -12 10 -18 13 -14 7 11 -19 -103 -17 -128 2 -23 17
-36 19 -36 5 0 -5 7 -10 15 -10 8 0 15 -4 15 -9 0 -6 -16 -7 -37 -4 -28 5 -34
3 -28 -7 5 -8 4 -11 -2 -7 -6 4 -21 -2 -34 -12 -27 -20 -51 -18 -42 5 3 9 13
12 24 9 11 -4 19 -2 19 3 0 11 -50 35 -58 27 -3 -3 0 -5 6 -5 22 0 12 -20 -10
-21 -13 0 -17 -3 -11 -6 10 -3 10 -8 -1 -19 -19 -18 -27 -18 -20 1 6 16 6 16
-66 18 -47 2 -92 -24 -68 -39 6 -4 16 0 22 9 9 11 17 12 29 6 11 -7 17 -6 17
0 0 6 7 8 17 4 14 -6 14 -7 -3 -13 -45 -16 -84 -19 -96 -7 -18 18 -47 29 -87
33 -47 5 -56 -4 -29 -27 23 -18 23 -18 -19 -1 -27 11 -37 20 -30 25 7 5 3 6
-9 2 -11 -3 -38 2 -60 10 -36 15 -38 15 -19 -1 19 -16 19 -16 -14 -10 -28 5
-31 4 -22 -8 15 -18 -11 -30 -28 -13 -8 8 -11 8 -11 -1 0 -7 -10 -9 -29 -6
-17 4 -32 1 -36 -5 -5 -9 -11 -9 -22 0 -10 9 -17 9 -21 2 -4 -5 -23 -13 -42
-16 -23 -5 -30 -4 -21 2 10 7 1 9 -30 8 -38 -2 -43 -4 -32 -15 19 -19 16 -24
-8 -17 -15 5 -19 4 -14 -5 11 -17 -25 2 -112 62 -87 60 -223 199 -281 288
-187 284 -231 618 -124 930 69 200 224 404 402 529 192 135 438 219 640 219
l75 0 -65 -13z m363 -1962 c-3 -7 -8 -13 -12 -13 -4 0 -8 6 -8 13 0 8 6 14 13
14 7 0 10 -6 7 -14z m47 7 c0 -5 -7 -7 -15 -4 -8 4 -15 8 -15 10 0 2 7 4 15 4
8 0 15 -4 15 -10z m70 0 c0 -5 -2 -10 -4 -10 -3 0 -8 5 -11 10 -3 6 -1 10 4
10 6 0 11 -4 11 -10z m-620 -30 c0 -9 -69 1 -75 10 -3 5 5 6 17 2 13 -3 19 -1
15 5 -5 7 2 7 18 0 14 -7 25 -14 25 -17z m695 2 c-6 -7 -45 9 -45 18 0 4 11 3
24 -3 14 -7 23 -13 21 -15z m-665 8 c0 -5 -4 -10 -10 -10 -5 0 -10 5 -10 10 0
6 5 10 10 10 6 0 10 -4 10 -10z m557 4 c-3 -3 -12 -4 -19 -1 -8 3 -5 6 6 6 11
1 17 -2 13 -5z m-317 -65 c17 -13 18 -17 5 -10 -33 17 -51 31 -40 31 6 0 21
-10 35 -21z m-610 -1 c0 -4 -6 -8 -14 -8 -8 0 -17 4 -20 8 -2 4 4 8 15 8 10 0
19 -4 19 -8z m37 -4 c-3 -3 -12 -4 -19 -1 -8 3 -5 6 6 6 11 1 17 -2 13 -5z"/>
<path d="M2189 549 c26 -21 55 -25 49 -7 -3 7 -20 16 -39 19 l-34 7 24 -19z"/>
<path d="M2570 560 c-11 -7 -7 -10 17 -10 17 0 35 5 38 10 8 13 -35 13 -55 0z"/>
<path d="M1990 536 c0 -2 7 -7 16 -10 8 -3 12 -2 9 4 -6 10 -25 14 -25 6z"/>
<path d="M2085 530 c3 -5 11 -10 16 -10 6 0 7 5 4 10 -3 6 -11 10 -16 10 -6 0
-7 -4 -4 -10z"/>
<path d="M2138 528 c5 -5 16 -8 23 -6 8 3 3 7 -10 11 -17 4 -21 3 -13 -5z"/>
<path d="M2735 530 c-3 -5 -2 -10 4 -10 5 0 13 5 16 10 3 6 2 10 -4 10 -5 0
-13 -4 -16 -10z"/>
<path d="M1800 500 c-8 -5 -10 -10 -5 -10 6 0 17 5 25 10 8 5 11 10 5 10 -5 0
-17 -5 -25 -10z"/>
<path d="M1690 490 c-8 -5 -10 -10 -5 -10 6 0 17 5 25 10 8 5 11 10 5 10 -5 0
-17 -5 -25 -10z"/>
<path d="M1735 490 c4 -6 11 -8 16 -5 14 9 11 15 -7 15 -8 0 -12 -5 -9 -10z"/>
<path d="M2833 485 c0 -7 6 -11 14 -8 7 3 13 6 13 8 0 2 -6 5 -13 8 -8 3 -14
-1 -14 -8z"/>
</g>
</svg>
