<svg width="16" height="16" viewBox="0 0 16 16" fill="none" xmlns="http://www.w3.org/2000/svg">
<g id="Group">
<path id="Vector" d="M8.20894 16C12.2089 16 15.4648 12.7442 15.4648 8.74419C15.4648 4.93023 12.5066 1.80465 8.76708 1.51814V1.11628H9.69731C10.0061 1.11628 10.2555 0.866977 10.2555 0.55814C10.2555 0.249302 10.0061 0 9.69731 0H6.72057C6.41173 0 6.16243 0.249302 6.16243 0.55814C6.16243 0.866977 6.41173 1.11628 6.72057 1.11628H7.6508V1.51814C3.91126 1.80465 0.953125 4.93023 0.953125 8.74419C0.953125 12.7442 4.20894 16 8.20894 16ZM8.20894 2.60465C11.595 2.60465 14.3485 5.35814 14.3485 8.74419C14.3485 12.1302 11.595 14.8837 8.20894 14.8837C4.82289 14.8837 2.0694 12.1302 2.0694 8.74419C2.0694 5.35814 4.82289 2.60465 8.20894 2.60465Z" fill="white"/>
<path id="Vector_2" d="M8.20902 9.30279H11.1858C11.4946 9.30279 11.7439 9.05348 11.7439 8.74465C11.7439 8.43581 11.4946 8.18651 11.1858 8.18651H8.76716V5.02372C8.76716 4.71488 8.51786 4.46558 8.20902 4.46558C7.90018 4.46558 7.65088 4.71488 7.65088 5.02372V8.74465C7.65088 9.05348 7.90018 9.30279 8.20902 9.30279Z" fill="white"/>
</g>
</svg>
