<svg id="info" xmlns="http://www.w3.org/2000/svg" width="14" height="14" viewBox="0 0 14 14">
  <g id="info-2" data-name="info">
    <path id="Combined_Shape" data-name="Combined Shape" d="M2.05,11.95a7,7,0,0,1,9.9-9.9,7,7,0,0,1-9.9,9.9ZM.667,7A6.333,6.333,0,1,0,7,.667,6.341,6.341,0,0,0,.667,7ZM6.606,9.894,6.6,9.833V7.167A.371.371,0,0,1,7,6.834a.388.388,0,0,1,.394.274l.006.059V9.833a.372.372,0,0,1-.4.334A.387.387,0,0,1,6.606,9.894ZM6.5,4.333a.5.5,0,0,1,.406-.491L7,3.834a.5.5,0,0,1,.089.992l-.1.008A.5.5,0,0,1,6.5,4.333Z" fill="#f01136"/>
  </g>
</svg>
