<svg width="19" height="17" viewBox="0 0 19 17" fill="none" xmlns="http://www.w3.org/2000/svg">
<path fill-rule="evenodd" clip-rule="evenodd" d="M1.45988 12.0532L12.4963 1.01679C13.081 0.432117 13.9331 0.203775 14.7318 0.417781C15.5305 0.631787 16.1543 1.25563 16.3684 2.05431C16.5824 2.85299 16.354 3.70517 15.7693 4.28984L4.73293 15.3263C4.67636 15.3828 4.60547 15.423 4.52784 15.4424L0.996193 16.3253C0.672879 16.4061 0.38002 16.1133 0.460848 15.7899L1.34376 12.2583C1.36317 12.1807 1.4033 12.1098 1.45988 12.0532ZM15.5159 2.28281C15.3836 1.78882 14.9977 1.40296 14.5037 1.2706C14.0097 1.13823 13.4826 1.27946 13.121 1.64109L2.17152 12.5896L1.49609 15.2896L4.19604 14.6141L15.1454 3.66552C15.4742 3.33676 15.6208 2.87127 15.5453 2.41821L15.5159 2.28281ZM17.2232 15.897C17.2232 15.6532 17.0256 15.4555 16.7818 15.4555H8.83555L8.7562 15.4626C8.55026 15.5 8.3941 15.6802 8.3941 15.897C8.3941 16.1408 8.59174 16.3384 8.83555 16.3384H16.7818L16.8611 16.3313C17.0671 16.2939 17.2232 16.1137 17.2232 15.897Z" fill="#3C3C3C"/>
</svg>
