<svg width="22" height="17" viewBox="0 0 22 17" fill="none" xmlns="http://www.w3.org/2000/svg">
<path d="M20.1875 6.375H19.4792V3.54167C19.4789 3.25997 19.3668 2.9899 19.1676 2.79071C18.9684 2.59152 18.6984 2.47948 18.4167 2.47917H17V1.0625C16.9997 0.780802 16.8876 0.510731 16.6885 0.311541C16.4893 0.11235 16.2192 0.000309357 15.9375 0H1.41667C1.13497 0.000309357 0.864898 0.11235 0.665707 0.311541C0.466517 0.510731 0.354476 0.780802 0.354167 1.0625V2.75843C0.243028 2.85645 0.153981 2.97696 0.0929243 3.11199C0.0318674 3.24702 0.000193533 3.39348 0 3.54167V16.6458C0 16.7398 0.0373139 16.8298 0.103733 16.8963C0.170152 16.9627 0.260236 17 0.354167 17H18.4167C18.6984 16.9997 18.9684 16.8876 19.1676 16.6885C19.3668 16.4893 19.4789 16.2192 19.4792 15.9375V12.75H19.7377C19.8316 12.75 19.9217 12.7127 19.9881 12.6463C20.0546 12.5798 20.0919 12.4898 20.0919 12.3958H20.1875C20.4692 12.3955 20.7393 12.2835 20.9385 12.0843C21.1376 11.8851 21.2497 11.615 21.25 11.3333V7.4375C21.2497 7.1558 21.1376 6.88573 20.9385 6.68654C20.7393 6.48735 20.4692 6.37531 20.1875 6.375ZM18.7708 12.0417H12.75V7.79167H18.7708V12.0417ZM1.0625 1.0625C1.06258 0.968595 1.09993 0.87856 1.16633 0.81216C1.23273 0.745759 1.32276 0.708418 1.41667 0.708333H15.9375C16.0314 0.708418 16.1214 0.745759 16.1878 0.81216C16.2542 0.87856 16.2916 0.968595 16.2917 1.0625V2.47917H1.0625V1.0625ZM18.7708 15.9375C18.7707 16.0314 18.7334 16.1214 18.667 16.1878C18.6006 16.2542 18.5106 16.2916 18.4167 16.2917H0.708333V3.54167C0.708826 3.44789 0.746299 3.35809 0.812611 3.29178C0.878924 3.22547 0.968721 3.18799 1.0625 3.1875H18.4167C18.5106 3.18758 18.6006 3.22493 18.667 3.29133C18.7334 3.35773 18.7707 3.44776 18.7708 3.54167V6.375C18.6769 6.375 18.5868 6.41231 18.5204 6.47873C18.454 6.54515 18.4167 6.63524 18.4167 6.72917V7.08333H12.3958C12.3019 7.08333 12.2118 7.12065 12.1454 7.18707C12.079 7.25349 12.0417 7.34357 12.0417 7.4375V12.3958C12.0417 12.4898 12.079 12.5798 12.1454 12.6463C12.2118 12.7127 12.3019 12.75 12.3958 12.75H18.7708V15.9375ZM20.5417 11.3333C20.5416 11.4272 20.5042 11.5173 20.4378 11.5837C20.3714 11.6501 20.2814 11.6874 20.1875 11.6875H19.7377C19.6889 11.6877 19.6407 11.6982 19.5962 11.7181C19.5517 11.7381 19.5118 11.7672 19.4792 11.8034V7.08333H20.1875C20.2814 7.08342 20.3714 7.12076 20.4378 7.18716C20.5042 7.25356 20.5416 7.3436 20.5417 7.4375V11.3333ZM15.2292 11.6875C15.5794 11.6875 15.9218 11.5836 16.213 11.3891C16.5042 11.1945 16.7312 10.9179 16.8652 10.5943C16.9992 10.2708 17.0343 9.9147 16.966 9.57119C16.8976 9.22769 16.729 8.91215 16.4813 8.6645C16.2337 8.41684 15.9181 8.24819 15.5746 8.17986C15.2311 8.11153 14.8751 8.1466 14.5515 8.28063C14.2279 8.41466 13.9514 8.64163 13.7568 8.93284C13.5622 9.22406 13.4583 9.56643 13.4583 9.91667C13.4589 10.3862 13.6456 10.8362 13.9776 11.1682C14.3096 11.5002 14.7597 11.6869 15.2292 11.6875ZM15.2292 8.85417C15.4393 8.85417 15.6447 8.91648 15.8195 9.03323C15.9942 9.14998 16.1304 9.31592 16.2108 9.51007C16.2912 9.70421 16.3122 9.91784 16.2712 10.1239C16.2303 10.3301 16.1291 10.5194 15.9805 10.668C15.8319 10.8166 15.6426 10.9178 15.4364 10.9588C15.2303 10.9997 15.0167 10.9787 14.8226 10.8983C14.6284 10.8179 14.4625 10.6817 14.3457 10.507C14.229 10.3322 14.1667 10.1268 14.1667 9.91667C14.167 9.63497 14.279 9.3649 14.4782 9.16571C14.6774 8.96652 14.9475 8.85448 15.2292 8.85417Z" fill="black"/>
</svg>
