<svg width="44" height="44" viewBox="0 0 44 44" fill="none" xmlns="http://www.w3.org/2000/svg">
<g id="Group 1000004426">
<path id="Vector" d="M20.4375 6.37509V20.4376H6.375C5.9606 20.4376 5.56317 20.6022 5.27015 20.8952C4.97712 21.1883 4.8125 21.5857 4.8125 22.0001C4.8125 25.3995 5.82053 28.7225 7.70912 31.5489C9.5977 34.3754 12.282 36.5784 15.4226 37.8793C18.5632 39.1801 22.0191 39.5205 25.3531 38.8573C28.6872 38.1941 31.7497 36.5572 34.1534 34.1535C36.5571 31.7498 38.1941 28.6872 38.8572 25.3532C39.5204 22.0192 39.1801 18.5633 37.8792 15.4227C36.5783 12.2821 34.3753 9.59779 31.5489 7.7092C28.7224 5.82061 25.3994 4.81259 22 4.81259C21.5856 4.81259 21.1882 4.97721 20.8951 5.27023C20.6021 5.56325 20.4375 5.96068 20.4375 6.37509Z" fill="#818181"/>
<circle id="Ellipse 2638" cx="22" cy="22" r="21.25" stroke="#818181" stroke-width="1.5"/>
</g>
</svg>
