<svg width="22" height="22" viewBox="0 0 22 22" fill="none" xmlns="http://www.w3.org/2000/svg">
<g id="correct_4436481 1" clip-path="url(#clip0_41_726)">
<g id="Group">
<path id="Vector" fill-rule="evenodd" clip-rule="evenodd" d="M11 0C4.93281 0 0 4.93281 0 11C0 17.0672 4.93281 22 11 22C17.0672 22 22 17.0672 22 11C22 4.93281 17.0672 0 11 0Z" fill="#0B92D3"/>
<path id="Vector_2" fill-rule="evenodd" clip-rule="evenodd" d="M16.3193 7.2918C16.5857 7.5582 16.5857 7.99649 16.3193 8.26289L9.87402 14.7082C9.74082 14.8414 9.56465 14.9102 9.38848 14.9102C9.2123 14.9102 9.03613 14.8414 8.90293 14.7082L5.68027 11.4855C5.41387 11.2191 5.41387 10.7809 5.68027 10.5145C5.94668 10.248 6.38496 10.248 6.65137 10.5145L9.38848 13.2516L15.3482 7.2918C15.6146 7.02109 16.0529 7.02109 16.3193 7.2918Z" fill="white"/>
</g>
</g>
<defs>
<clipPath id="clip0_41_726">
<rect width="22" height="22" fill="white"/>
</clipPath>
</defs>
</svg>
