<svg id="Group_159580" data-name="Group 159580" xmlns="http://www.w3.org/2000/svg" width="29.571" height="18" viewBox="0 0 29.571 18">
  <path id="Path_206360" data-name="Path 206360" d="M28,19a2.571,2.571,0,0,0,2.571,2.571v5.143A1.286,1.286,0,0,1,29.286,28H11.929a1.929,1.929,0,0,0-3.857,0H2.286A1.286,1.286,0,0,1,1,26.714V21.571a2.571,2.571,0,1,0,0-5.143V11.286A1.286,1.286,0,0,1,2.286,10H8.071a1.929,1.929,0,0,0,3.857,0H29.286a1.286,1.286,0,0,1,1.286,1.286v5.143A2.571,2.571,0,0,0,28,19Z" transform="translate(-1 -10)" fill="#28d9aa"/>
  <path id="Path_206361" data-name="Path 206361" d="M29.071,19a2.571,2.571,0,0,0,2.571,2.571v5.143H12.505a1.929,1.929,0,0,0-2.867,0H7.857c-3.523,0-5-4.455-2.874-5.336a2.571,2.571,0,0,0-.116-4.8A1.241,1.241,0,0,1,4,15.419V11.286A1.286,1.286,0,0,1,5.286,10H9.143A1.929,1.929,0,0,0,13,10H30.357a1.286,1.286,0,0,1,1.286,1.286v5.143A2.571,2.571,0,0,0,29.071,19Z" transform="translate(-2.071 -10)" fill="#b8f6e4"/>
  <path id="Path_206362" data-name="Path 206362" d="M14,16.643v1.286a.643.643,0,0,0,1.286,0V16.643a.643.643,0,0,0-1.286,0ZM14,20.5v1.286a.643.643,0,1,0,1.286,0V20.5A.643.643,0,1,0,14,20.5Zm0,3.857v1.286a.643.643,0,0,0,1.286,0V24.357a.643.643,0,0,0-1.286,0Z" transform="translate(-5.643 -12.143)" fill="#28d9aa"/>
  <path id="Path_206363" data-name="Path 206363" d="M32.1,17.1c-9.816,9.829-9.071,9.186-9.456,9.186a.643.643,0,0,1-.456-1.1l9-9a.645.645,0,1,1,.913.913Z" transform="translate(-8.498 -12.141)" fill="#dad7e5"/>
  <path id="Path_206364" data-name="Path 206364" d="M32.811,17.1c-8.389,8.389-7.785,7.9-8.171,7.9a.643.643,0,0,1-.456-1.1L31.9,16.185a.645.645,0,1,1,.913.913Z" transform="translate(-9.212 -12.141)" fill="#fff"/>
  <path id="Path_206365" data-name="Path 206365" d="M35.857,27.929a1.929,1.929,0,1,1-.984-1.68A1.929,1.929,0,0,1,35.857,27.929Z" transform="translate(-12.071 -15.715)" fill="#dad7e5"/>
  <path id="Path_206366" data-name="Path 206366" d="M35.934,28.934a1.929,1.929,0,0,1-2.649-2.649,1.929,1.929,0,0,1,2.649,2.649Z" transform="translate(-12.431 -15.717)" fill="#fff"/>
  <path id="Path_206367" data-name="Path 206367" d="M25.857,17.929a1.929,1.929,0,1,1-.984-1.68A1.929,1.929,0,0,1,25.857,17.929Z" transform="translate(-8.5 -12.144)" fill="#dad7e5"/>
  <path id="Path_206368" data-name="Path 206368" d="M25.934,18.934a1.929,1.929,0,0,1-2.649-2.649,1.929,1.929,0,0,1,2.649,2.649Z" transform="translate(-8.859 -12.145)" fill="#fff"/>
</svg>
