<svg width="67" height="13" viewBox="0 0 67 13" fill="none" xmlns="http://www.w3.org/2000/svg">
<path d="M17.0699 3.05371C15.8741 2.60331 14.7166 2.37811 13.2618 2.69564C12.1291 2.9366 11.2148 3.39826 10.6202 4.53326C10.8837 4.75846 11.1224 4.95438 11.3521 5.15481C11.735 5.48585 12.1291 5.83041 12.6583 6.22225C13.0726 5.61647 13.809 4.95213 14.5927 4.94087C15.5048 4.92286 16.3763 5.4228 16.5182 6.1592C16.5767 6.46322 16.6173 7.71983 16.6173 7.71983L16.1399 7.82117C16.0454 7.85618 15.9415 7.85618 15.8471 7.82117L15.7728 7.79189L15.7097 7.76712C14.7312 7.38912 13.6936 7.18709 12.6448 7.17034C12.2919 7.17003 11.9395 7.19713 11.5908 7.25141C10.5189 7.42031 9.24651 8.0261 9.26903 9.9538C9.23902 10.5714 9.40794 11.1824 9.75096 11.6968C10.036 12.1055 10.4173 12.4378 10.861 12.6644C11.3048 12.891 11.7975 13.005 12.2957 12.9962C13.5123 13.0337 14.7 12.6207 15.6309 11.8365C15.6512 11.8207 15.8719 11.627 15.9372 11.5775L16.5925 11.0663V12.9872H19.3354V6.26955C19.3496 5.56211 19.1374 4.86865 18.7299 4.2902C18.3224 3.71176 17.7408 3.27855 17.0699 3.05371ZM16.2232 9.35928C15.6377 10.4087 14.6806 11.001 13.5816 11.001H13.4397C13.212 10.996 12.9855 10.9666 12.7641 10.9131C11.9421 10.6879 11.4737 10.0349 11.512 9.14534L11.53 8.75574H16.5677L16.2232 9.35928Z" fill="#9B9B9B"/>
<path d="M45.7135 3.05371C44.5177 2.60331 43.3624 2.37811 41.9054 2.69564C40.7681 2.9366 39.8538 3.39826 39.2593 4.53326C39.5228 4.75846 39.7592 4.95438 39.9912 5.15481C40.374 5.48585 40.7681 5.83041 41.2951 6.22225C41.7117 5.62548 42.4459 4.95213 43.2296 4.93637C44.1304 4.91835 45.0109 5.41829 45.155 6.15469C45.2136 6.45871 45.2518 7.71532 45.2518 7.71532L44.7767 7.81666C44.6822 7.85148 44.5784 7.85148 44.4839 7.81666L44.4074 7.78739L44.3465 7.76261C43.368 7.38462 42.3304 7.18258 41.2816 7.16584C40.9287 7.16544 40.5763 7.19255 40.2277 7.24691C39.1557 7.41581 37.8833 8.02159 37.9036 9.9493C37.8769 10.5644 38.0473 11.1719 38.39 11.6833C38.675 12.0941 39.057 12.4281 39.5021 12.6555C39.9473 12.883 40.4417 12.997 40.9415 12.9872C42.1588 13.0239 43.3468 12.6111 44.279 11.8275C44.297 11.8117 44.52 11.618 44.583 11.5685L45.2406 11.0573V12.9782H47.9835V6.26955C47.9977 5.56148 47.785 4.86743 47.3766 4.28885C46.9682 3.71026 46.3854 3.27746 45.7135 3.05371ZM44.8668 9.35928C44.2812 10.4087 43.3264 11.001 42.2274 11.001H42.0856C41.8541 10.9967 41.6238 10.9673 41.3987 10.9131C40.5767 10.6879 40.1106 10.0349 40.1488 9.14534L40.1669 8.75574H45.2046L44.8668 9.35928Z" fill="#9B9B9B"/>
<path d="M64.4455 3.05371C63.2475 2.60331 62.0922 2.37811 60.6374 2.69564C59.4979 2.9366 58.5859 3.39826 57.9891 4.53326C58.2526 4.75846 58.489 4.95438 58.721 5.15481C59.1038 5.48585 59.4979 5.83041 60.0249 6.22225C60.4415 5.62548 61.1756 4.95213 61.9593 4.93637C62.8601 4.91835 63.7407 5.41829 63.8848 6.15469C63.9433 6.45871 63.9816 7.71532 63.9816 7.71532L63.5065 7.81666C63.412 7.85148 63.3082 7.85148 63.2137 7.81666L63.1371 7.78739L63.0763 7.76261C62.0978 7.38462 61.0602 7.18258 60.0114 7.16584C59.6585 7.16544 59.3061 7.19255 58.9574 7.24691C57.8855 7.41581 56.6131 8.02159 56.6334 9.9493C56.6077 10.5642 56.7781 11.1714 57.1198 11.6833C57.4047 12.0921 57.7859 12.4245 58.2298 12.6511C58.6736 12.8778 59.1663 12.9916 59.6646 12.9827C60.8845 13.0242 62.0765 12.6127 63.011 11.8275C63.0313 11.8117 63.252 11.618 63.315 11.5685L63.9726 11.0573V12.9782H66.7043V6.26955C66.7189 5.56295 66.5077 4.87011 66.1015 4.29176C65.6953 3.71342 65.1152 3.27972 64.4455 3.05371ZM63.5965 9.35928C63.0133 10.4087 62.0562 11.001 60.9572 11.001H60.8153C60.5876 10.996 60.3611 10.9666 60.1397 10.9131C59.3155 10.6879 58.8493 10.0349 58.8876 9.14534L58.9056 8.75574H63.9343L63.5965 9.35928Z" fill="#9B9B9B"/>
<path d="M55.4733 3.41176C55.0725 3.41184 54.6794 3.52245 54.3373 3.73143C53.9952 3.94042 53.7174 4.23967 53.5344 4.59631C53.4871 4.67963 53.1921 5.2719 53.1921 5.2719L52.5345 5.12102V3.54913H49.8794V12.9962H52.5367V12.1337C52.5367 11.2329 52.5367 10.3569 52.5367 9.46961V9.30521C52.5367 8.99219 52.5142 8.6679 52.5367 8.34136C52.5728 7.77211 52.8065 7.23332 53.1975 6.81805C53.5886 6.40277 54.1123 6.13708 54.6784 6.06685C55.05 6.01506 55.9823 6.0083 56.0836 6.0083V3.40726C55.8787 3.40275 55.676 3.40275 55.4733 3.41176Z" fill="#9B9B9B"/>
<path d="M7.20411 10.796C6.97049 10.7913 6.73736 10.7725 6.506 10.7397C5.81238 10.6249 5.36424 10.2893 5.17282 9.71733C5.0892 9.48037 5.04212 9.23206 5.0332 8.98093V4.7562L5.44531 4.73818C6.35635 4.71991 7.26262 4.60135 8.1477 4.38462L7.5802 2.46368L5.0332 2.83525V0H2.02679V2.83525H0V4.78097H2.02679C2.02679 4.78097 2.02679 8.79177 2.04481 9.81642C2.04712 10.4403 2.2276 11.0505 2.56502 11.5752C2.97037 12.19 3.55814 12.5751 4.41615 12.7868C5.34172 13.012 6.27855 13.012 7.26942 12.9917H7.49462V10.796H7.38652H7.20411Z" fill="#9B9B9B"/>
<path d="M30.2263 12.985H27.4474C27.4474 12.985 27.4474 9.10035 27.4474 7.76718C27.4705 7.33197 27.3511 6.9011 27.1073 6.53984C26.8781 6.25719 26.5705 6.04864 26.2231 5.94045C25.8756 5.83226 25.504 5.82925 25.1548 5.9318C24.8319 6.01219 24.5417 6.19069 24.3243 6.44274C24.107 6.69479 23.9731 7.00801 23.941 7.3393C23.9202 7.51419 23.9097 7.69014 23.9095 7.86626C23.9095 9.24673 23.9095 12.994 23.9095 12.994H21.144V3.53569H23.9185V5.65706L24.3171 4.96345C25.2066 3.40057 26.9384 3.13033 28.0847 3.45236C29.1499 3.75188 29.821 4.60538 30.0462 5.77642L30.4538 4.96345C31.3433 3.40057 33.2688 3.16186 34.415 3.48164C35.4825 3.7789 36.1108 4.49504 36.3337 5.66607C36.3867 5.96943 36.4124 6.27694 36.4103 6.58488C36.4103 8.22658 36.4103 9.86828 36.4103 11.5122V12.9783H33.7552V7.7987C33.7603 7.62454 33.7482 7.45029 33.7192 7.27849C33.5322 6.30113 32.7913 5.77417 31.7397 5.87325C30.8681 5.95432 30.2308 6.70874 30.2263 7.67484V12.985Z" fill="#9B9B9B"/>
</svg>
