<?xml version="1.0" encoding="UTF-8"?>
<svg width="40px" height="42px" viewBox="0 0 40 42" version="1.1" xmlns="http://www.w3.org/2000/svg" xmlns:xlink="http://www.w3.org/1999/xlink">
    <title>DE325E6F-CA43-4441-8B1E-756B2D04DCB5</title>
    <g id="Dsk-Checkout" stroke="none" stroke-width="1" fill="none" fill-rule="evenodd">
        <g id="Order-confirmation-registered" transform="translate(-281.000000, -902.000000)">
            <g id="elements/side-menu-account" transform="translate(169.000000, 301.000000)">
                <g id="referral" transform="translate(0.000000, 601.000000)">
                    <g id="flaticon1557754890-svg" transform="translate(112.000000, 0.000000)">
                        <path d="M39.7895968,22.7875806 L36.0481452,15.423629 C35.7112903,14.7606452 35.0673387,14.3489516 34.3675806,14.3489516 C33.1059677,14.3489516 6.89185484,14.3489516 5.6325,14.3489516 C4.93266129,14.3489516 4.28879032,14.7606452 3.95193548,15.423629 L0.210483871,22.7875806 C0.0126612903,23.1769355 0.0312096774,23.6495161 0.258951613,24.0205645 C0.470080645,24.3646774 0.828629032,24.57 1.21798387,24.57 L4.26435484,24.57 L4.26435484,39.3833871 C4.26435484,40.4347581 5.05637097,41.2902419 6.03,41.2902419 C6.42943548,41.2902419 33.5709677,41.2902419 33.9704032,41.2902419 C34.9439516,41.2902419 35.7360484,40.4348387 35.7360484,39.3833871 L35.7360484,33.0241935 C35.7360484,32.6900806 35.4653226,32.4192742 35.131129,32.4192742 C34.7969355,32.4192742 34.5262097,32.69 34.5262097,33.0241935 L34.5262097,39.3834677 C34.5262097,39.7612903 34.2716935,40.0805645 33.9703226,40.0805645 L20.605,40.0805645 L20.605,17.4797581 L23.7598387,23.6889516 C24.0358871,24.2325 24.5660484,24.5701613 25.1432258,24.5701613 L34.5260484,24.5701613 L34.5260484,30.2015323 C34.5260484,30.5356452 34.7967742,30.8064516 35.1309677,30.8064516 C35.4651613,30.8064516 35.7358871,30.5357258 35.7358871,30.2015323 L35.7358871,24.5701613 L38.7822581,24.5701613 C39.1716129,24.5701613 39.5300806,24.3647581 39.7412903,24.0207258 C39.968871,23.6494355 39.9875,23.1770161 39.7895968,22.7875806 Z M1.28322581,23.3604032 C1.28322581,23.3527419 1.28475806,23.3441935 1.28903226,23.3356452 L5.03048387,15.9716935 C5.15983871,15.7170161 5.39056452,15.5587903 5.63258065,15.5587903 L19.0142742,15.5587903 C18.5519355,16.468871 15.7858871,21.9127419 15.1618548,23.1410484 L15.1618548,23.141129 C15.0930645,23.276371 14.9762903,23.3604032 14.8570161,23.3604032 C14.5157258,23.3604032 1.6516129,23.3604032 1.28322581,23.3604032 Z M19.3951613,40.0804839 L6.02991935,40.0804839 C5.72862903,40.0804839 5.4741129,39.761371 5.4741129,39.3834677 L5.4741129,24.5700806 L14.8569355,24.5700806 C15.4362097,24.5700806 15.9652419,24.2305645 16.2403226,23.6889516 L19.3951613,17.4796774 L19.3951613,40.0804839 Z M25.1432258,23.3603226 C25.0239516,23.3603226 24.9070968,23.2762903 24.8383871,23.1409677 L20.9859677,15.5587097 L34.3676613,15.5587097 C34.6095968,15.5587097 34.8402419,15.7169355 34.9697581,15.9716129 L38.7112097,23.3355645 C38.7155645,23.3441129 38.7170161,23.3526613 38.7170161,23.3603226 C38.3479839,23.3603226 25.4845968,23.3603226 25.1432258,23.3603226 Z" id="Shape" fill="#4A4A4A" fill-rule="nonzero"></path>
                        <path d="M19.9998387,1.88072581 C18.6516129,-0.282419355 15.6262097,-0.647741935 13.8044355,1.1766129 C13.0518548,1.93024194 12.6379839,2.93064516 12.6390303,3.99362903 C12.6420968,7.06524194 14.6987097,10.0387097 18.2814516,12.1515323 C18.3779032,12.2084677 18.4837097,12.2354839 18.5881452,12.2354839 C18.7951613,12.2354839 18.9968548,12.1291129 19.1096774,11.9378226 C19.2793548,11.6501613 19.1837097,11.2791935 18.8959677,11.1095161 C17.3797581,10.2152419 13.8525806,7.73169355 13.848629,3.99241935 C13.8470161,2.32645161 15.3145968,1.01677419 16.9905645,1.24241935 C18.4884677,1.44427419 19.0071774,2.62120968 19.1224194,2.74137097 C19.6566129,3.29870968 20.3856452,3.30064516 20.8883065,2.72467742 C21.0225806,2.56943548 21.6710484,1.21112903 23.3776613,1.20935484 C24.9054032,1.20935484 26.1498387,2.45217742 26.1515323,3.97983871 C26.1551613,7.54 22.9881452,9.97370968 21.1000806,11.1075806 C20.8137097,11.2795968 20.7209677,11.651129 20.8929839,11.9375806 C21.0650806,12.2240323 21.4365323,12.3165323 21.7229839,12.1446774 C25.3620161,9.95927419 27.3645161,7.0591129 27.3613747,3.97854839 C27.3570161,0.0846774194 22.2395968,-1.57282258 19.9998387,1.88072581 Z" id="Path" fill="#F96446"></path>
                    </g>
                </g>
            </g>
        </g>
    </g>
</svg>