<svg width="15" height="13" viewBox="0 0 15 13" fill="none" xmlns="http://www.w3.org/2000/svg">
<path fill-rule="evenodd" clip-rule="evenodd" d="M7.85294 0.250479C8.17699 -0.053632 8.74092 -0.0852393 9.11259 0.179881L14.5748 4.07599C14.8554 4.27617 14.9548 4.59769 14.8241 4.88299C14.6935 5.16818 14.3603 5.35714 13.9881 5.35714H0.892857C0.39975 5.35714 0 5.03007 0 4.62662C0 4.22318 0.39975 3.89611 0.892857 3.89611H11.6052L7.93913 1.28117C7.56747 1.01605 7.52889 0.554589 7.85294 0.250479Z" fill="black"/>
<path fill-rule="evenodd" clip-rule="evenodd" d="M7.02809 12.2497C6.70405 12.5537 6.14 12.5853 5.76833 12.3202L0.306165 8.42408C0.0255579 8.22401 -0.0738115 7.90239 0.0568076 7.6172C0.187427 7.33191 0.520629 7.14294 0.892891 7.14294H13.9881C14.4812 7.14294 14.881 7.47002 14.881 7.87346C14.881 8.2769 14.4812 8.60398 13.9881 8.60398H3.27577L6.94179 11.2189C7.31345 11.4841 7.35214 11.9455 7.02809 12.2497Z" fill="black"/>
</svg>
