<svg id="Group" xmlns="http://www.w3.org/2000/svg" xmlns:xlink="http://www.w3.org/1999/xlink" width="286" height="231" viewBox="0 0 286 231">
  <defs>
    <clipPath id="clip-path">
      <path id="Clip_18" data-name="Clip 18" d="M0,231H286V0H0Z" fill="none"/>
    </clipPath>
    <linearGradient id="linear-gradient" x1="1" x2="0" y2="1" gradientUnits="objectBoundingBox">
      <stop offset="0" stop-color="#ff8960"/>
      <stop offset="1" stop-color="#ff62a5"/>
    </linearGradient>
  </defs>
  <g id="No_Message" data-name="No Message">
    <path id="Fill_9" data-name="Fill 9" d="M0,0V1C0,.665.014.333.026,0Z" transform="translate(119 92)" fill="#e7eaf0"/>
    <path id="Clip_18-2" data-name="Clip 18" d="M0,231H286V0H0Z" fill="none"/>
    <g id="No_Message-2" data-name="No Message" clip-path="url(#clip-path)">
      <path id="Stroke_28" data-name="Stroke 28" d="M57.134.048C25.038-1.142,0,20.174,0,40.941c0,20.9,18.07,45.914,46.556,40.242s30.69-24.019,56.971-24.019c16.1,0,35.985,10.443,45.473,16.03" transform="translate(8 23)" fill="none" stroke="#d7dae9" stroke-width="1" stroke-dasharray="8.081 8.081"/>
      <path id="Stroke_29" data-name="Stroke 29" d="M0,0C1.917,1.24,3,2,3,2" transform="translate(160 98)" fill="none" stroke="#9d9d9d" stroke-width="1"/>
      <path id="Stroke_30" data-name="Stroke 30" d="M42,21.927a4.4,4.4,0,0,1-2.757-.379c-1.947-1.235-1.222-2.866-2.7-3.607-1.839-.923-2.793.976-4.555.093-2.071-1.039-.706-2.732-2.661-3.713-2.047-1.026-3.55.619-5.479-.349-1-.5-1.134-1-1.562-1.929-.462-1.005-.373-1.88-1.635-2.509-1.661-.827-2.895.926-4.941-.1-1.955-.981-.59-2.674-2.661-3.713-1.762-.884-2.716,1.015-4.555.093-1.479-.742-.7-2.452-2.7-3.608C4.155,1.261,2.847,2.119,2,2,.527,1.778,0,0,0,0" transform="translate(245 42)" fill="none" stroke="#f06d8d" stroke-width="1"/>
      <path id="Stroke_31" data-name="Stroke 31" d="M0,35a4.277,4.277,0,0,1,1.138-2.6c1.8-1.56,3.288-.384,4.455-1.626,1.45-1.543-.252-3.02,1.137-4.5,1.633-1.738,3.011.084,4.552-1.557C12.9,23,11.6,21.058,13.126,19.439a3.18,3.18,0,0,1,2.413-.985c1.163-.168,2.041.17,3.033-.891,1.3-1.4-.172-3.107,1.441-4.824,1.542-1.641,2.92.181,4.552-1.557,1.389-1.48-.312-2.956,1.137-4.5,1.167-1.242,2.72.007,4.455-1.627,1.417-1.335.885-2.864,1.241-3.657C32.022.011,34,0,34,0" transform="translate(68 131)" fill="none" stroke="#f06d8d" stroke-width="1"/>
      <path id="Fill_57" data-name="Fill 57" d="M16.932,6.384c-.209-.666-1.115-1.475-3.071-.813A17.424,17.424,0,0,0,9.121,8.344a19.161,19.161,0,0,0,1.127-5.659C10.248.546,9.166,0,8.494,0S6.8.65,6.8,2.789A19.027,19.027,0,0,0,7.872,8.342,17.59,17.59,0,0,0,3.053,5.476c-1.956-.66-2.787.242-3,.908S.128,8.259,2.083,8.92a16.857,16.857,0,0,0,5.4.657,18.118,18.118,0,0,0-4.107,3.887C2.171,15.2,2.738,16.3,3.28,16.71s1.735.511,2.944-1.22a18.749,18.749,0,0,0,2.27-5.147,18.9,18.9,0,0,0,2.28,5.269c1.208,1.73,2.39,1.509,2.935,1.1s1-1.56-.205-3.291a18,18,0,0,0-4-3.839,17.078,17.078,0,0,0,5.517-.63c1.954-.66,2.118-1.9,1.911-2.566" transform="translate(41 121)" fill="url(#linear-gradient)"/>
      <path id="Fill_58" data-name="Fill 58" d="M9,4.637c.016-.354-.3-.909-1.423-.953a9.886,9.886,0,0,0-2.931.451A9.313,9.313,0,0,0,6.251,1.644C6.642.623,6.186.162,5.843.04s-.983,0-1.373,1.019a9.084,9.084,0,0,0-.463,2.846A9.5,9.5,0,0,0,2.062,1.651C1.18.976.588,1.255.362,1.535s-.3.907.576,1.583A9.724,9.724,0,0,0,3.581,4.423a9.883,9.883,0,0,0-2.807,1.1c-.935.6-.844,1.236-.641,1.531s.8.563,1.729-.041a9.535,9.535,0,0,0,2.1-2.039,9.165,9.165,0,0,0,.208,2.934c.3,1.048.95,1.16,1.3,1.063s.8-.559.495-1.609A9.276,9.276,0,0,0,4.616,4.8a9.975,9.975,0,0,0,2.938.713c1.122.044,1.431-.52,1.445-.874" transform="translate(61 76)" fill="#dfe1ec"/>
      <path id="Fill_59" data-name="Fill 59" d="M7.677.114C7.341-.1,6.637-.107,6,.945A10.766,10.766,0,0,0,4.865,4.017a10.81,10.81,0,0,0-1.549-2.95C2.537.115,1.851.294,1.547.555S1.02,1.5,1.8,2.45A10.436,10.436,0,0,0,4.3,4.5a10.278,10.278,0,0,0-3.218.6C-.041,5.562-.087,6.287.061,6.663S.774,7.469,1.9,7A10.365,10.365,0,0,0,4.575,5.2a10.985,10.985,0,0,0-.439,3.319C4.22,9.757,4.878,10.026,5.273,10s.969-.447.884-1.684a10.836,10.836,0,0,0-.848-3.166A10.363,10.363,0,0,0,8.256,6.6c1.175.3,1.628-.258,1.724-.651S9.864,4.869,8.689,4.569a10.171,10.171,0,0,0-3.2-.152A10.6,10.6,0,0,0,7.749,2C8.39.944,8.013.329,7.677.114" transform="translate(159 43)" fill="#dfe1ec"/>
      <path id="Fill_94" data-name="Fill 94" d="M16.042,6.262a12.058,12.058,0,0,1-6-4.622L9,0,8.173,1.391a11.992,11.992,0,0,1-6.3,4.927L0,7l1.929.754A12.23,12.23,0,0,1,7.44,11.845L9,14l1.2-1.763a11.968,11.968,0,0,1,5.261-4.154L18,7Z" transform="translate(209 22)" fill="#e8e9eb"/>
      <path id="Fill_95" data-name="Fill 95" d="M5.347,1.789a3.99,3.99,0,0,1-2-1.321L3,0,2.724.4a3.957,3.957,0,0,1-2.1,1.408L0,2l.643.215A4.083,4.083,0,0,1,2.48,3.384L3,4l.4-.5A3.941,3.941,0,0,1,5.153,2.31L6,2Z" transform="translate(227 15)" fill="#e8e9eb"/>
      <path id="Fill_96" data-name="Fill 96" d="M5.347,1.789a3.989,3.989,0,0,1-2-1.321L3,0,2.724.4a3.957,3.957,0,0,1-2.1,1.408L0,2l.644.216A4.08,4.08,0,0,1,2.48,3.384L3,4l.4-.5A3.944,3.944,0,0,1,5.153,2.31L6,2Z" transform="translate(206 20)" fill="#e8e9eb"/>
      <path id="Stroke_97" data-name="Stroke 97" d="M4.482,0C-4.927,10.322,2.389,17.827,9,20" transform="translate(208.931 36.147) rotate(16)" fill="none" stroke="#e8e9eb" stroke-width="1"/>
    </g>
  </g>
  <g id="All_Done" data-name="All Done" transform="translate(118 66)">
    <path id="Fill_9-2" data-name="Fill 9" d="M21.649,61.891a2.288,2.288,0,0,1-1.408-1.142L4.075,31.865a12.3,12.3,0,0,1-.718-1.255q-.442-.849-1.308-3.005A34.02,34.02,0,0,1,.635,23.289a23.144,23.144,0,0,1-.627-5.016,16.782,16.782,0,0,1,.651-5.309q2.4-8.055,8.388-11.2T23.2,1.079a15.155,15.155,0,0,1,4.375,2.175,19.419,19.419,0,0,1,3.74,3.44q1.624,1.943,2.733,3.555a35.394,35.394,0,0,1,2.027,3.322,34.56,34.56,0,0,1,3.514-1.653q1.806-.732,4.23-1.461a19.411,19.411,0,0,1,5.007-.805,15.115,15.115,0,0,1,4.846.6q8.167,2.459,11.442,8.391t.871,13.985q-2.417,8.09-13.267,13.959L23.449,61.715a2.266,2.266,0,0,1-1.8.176" transform="translate(0 38)" fill="url(#linear-gradient)"/>
    <path id="Fill_11" data-name="Fill 11" d="M15.251,21.984a.84.84,0,0,1-.652-.134L4.449,15.266A4.514,4.514,0,0,1,4,14.983q-.288-.2-.933-.747a12.22,12.22,0,0,1-1.188-1.15,8.323,8.323,0,0,1-1.047-1.5A5.964,5.964,0,0,1,.157,9.776a6.2,6.2,0,0,1,.878-4.97,6.78,6.78,0,0,1,4.53-2.554,5.691,5.691,0,0,1,1.8-.024,7.217,7.217,0,0,1,1.8.485q.86.353,1.494.687a13.119,13.119,0,0,1,1.222.729,12.785,12.785,0,0,1,.878-1.11q.467-.531,1.143-1.165A7.227,7.227,0,0,1,15.415.77,5.659,5.659,0,0,1,17.106.163a6.869,6.869,0,0,1,5.162.8A6.289,6.289,0,0,1,24.9,5.3q.564,2.988-2.014,6.657L15.812,21.63a.832.832,0,0,1-.561.354" transform="translate(82)" fill="url(#linear-gradient)"/>
  </g>
</svg>
