<svg width="26" height="22" viewBox="0 0 26 22" fill="none" xmlns="http://www.w3.org/2000/svg">
<path d="M22.838 7.75439H2.66068C1.56364 7.75439 0.674316 8.64372 0.674316 9.74076V19.5135C0.674316 20.6105 1.56364 21.4999 2.66068 21.4999H22.838C23.935 21.4999 24.8243 20.6105 24.8243 19.5135V17.6339V9.74076C24.8243 8.64372 23.935 7.75439 22.838 7.75439Z" stroke="#555555" stroke-width="0.950002"/>
<path d="M22.1039 7.89751L21.338 5.45727C21.0085 4.40756 19.8886 3.82559 18.8403 4.15932L7.54713 7.75433" stroke="#555555" stroke-width="0.950002"/>
<path d="M17.5705 4.377L15.8126 2.52166C15.0554 1.72253 13.7928 1.69159 12.9974 2.45269L7.40928 7.79991" stroke="#555555" stroke-width="0.950002"/>
<path d="M11.991 3.05061L9.87457 1.61895C8.96251 1.002 7.72263 1.2447 7.11049 2.16L3.30842 7.84507" stroke="#555555" stroke-width="0.950002"/>
<path d="M15.3159 14.4011C14.9348 13.6092 14.2761 13.1002 13.3611 12.8881C13.0631 12.8173 12.7996 12.8103 12.543 12.8385C12.3974 12.8666 12.2795 12.8881 12.1757 12.9232C12.7996 12.2091 13.6246 11.304 14.5741 10.4414L14.8027 10.2363H14.1788C14.0057 10.2434 13.8253 10.2434 13.6518 10.2363H13.6311L13.5825 10.2434C13.5549 10.2504 13.548 10.2574 13.4787 10.3211C12.7855 10.9927 12.0853 11.7282 11.3366 12.5694C10.8792 13.0854 10.5395 13.6015 10.2898 14.139C9.99903 14.7546 9.88798 15.2921 9.95041 15.8223C10.0128 16.3668 10.207 16.8474 10.5326 17.2224C11.0941 17.9083 11.8428 18.2545 12.7368 18.2545C12.8337 18.2545 12.931 18.2545 13.0279 18.2475C13.638 18.1979 14.1854 17.9576 14.6638 17.5404C15.5512 16.7696 15.8143 15.4476 15.3153 14.4011H15.3159ZM14.373 16.2821C14.1581 16.7559 13.7353 17.095 13.2362 17.2364C12.3629 17.4697 11.4755 17.0739 11.0872 16.2676C10.983 16.0344 10.9278 15.7868 10.9278 15.5183C10.9278 14.6628 11.4962 13.9628 12.3419 13.765C12.4737 13.7369 12.6123 13.7225 12.7372 13.7225C13.458 13.7225 14.1305 14.1538 14.4147 14.8253C14.6089 15.2992 14.5951 15.8293 14.373 16.2817V16.2821Z" fill="#4F4F4F"/>
<path d="M1.1518 12.3365C3.41868 12.3365 5.25635 10.4988 5.25635 8.23193" stroke="#555555" stroke-width="0.950002"/>
<path d="M24.3467 16.9184C22.0799 16.9184 20.2422 18.7561 20.2422 21.0229" stroke="#555555" stroke-width="0.950002"/>
<path d="M24.1045 12.1045C21.8377 12.1045 20 10.2669 20 8" stroke="#555555" stroke-width="0.950002"/>
<path d="M1.1518 16.9184C3.41868 16.9184 5.25635 18.7561 5.25635 21.0229" stroke="#555555" stroke-width="0.950002"/>
</svg>
