<svg width="15" height="18" viewBox="0 0 15 18" fill="none" xmlns="http://www.w3.org/2000/svg">
<path d="M13.0396 0H3.39453C3.31165 0 3.23217 0.0329241 3.17356 0.0915292C3.11496 0.150134 3.08203 0.22962 3.08203 0.3125C3.08203 0.39538 3.11496 0.474866 3.17356 0.533471C3.23217 0.592076 3.31165 0.625 3.39453 0.625H13.0396C13.2053 0.625215 13.3642 0.691132 13.4813 0.808296C13.5985 0.925459 13.6644 1.08431 13.6646 1.25V14.0625C13.6646 14.1454 13.6975 14.2249 13.7561 14.2835C13.8147 14.3421 13.8942 14.375 13.9771 14.375C14.06 14.375 14.1395 14.3421 14.1981 14.2835C14.2567 14.2249 14.2896 14.1454 14.2896 14.0625V1.25C14.2893 0.918581 14.1575 0.600831 13.9231 0.366482C13.6888 0.132133 13.371 0.000330923 13.0396 0Z" fill="white"/>
<path d="M10.9195 2.12061H1.25C0.918581 2.12094 0.600831 2.25274 0.366482 2.48709C0.132133 2.72144 0.000330923 3.03919 0 3.37061V16.2499C0.000330923 16.5814 0.132133 16.8991 0.366482 17.1335C0.600831 17.3678 0.918581 17.4996 1.25 17.4999H10.9195C11.2509 17.4996 11.5687 17.3678 11.803 17.1335C12.0374 16.8991 12.1692 16.5814 12.1695 16.2499V3.37061C12.1692 3.03919 12.0374 2.72144 11.803 2.48709C11.5687 2.25274 11.2509 2.12094 10.9195 2.12061ZM11.5445 16.2499C11.5443 16.4156 11.4784 16.5745 11.3612 16.6916C11.244 16.8088 11.0852 16.8747 10.9195 16.8749H1.25C1.08431 16.8747 0.925459 16.8088 0.808296 16.6916C0.691132 16.5745 0.625215 16.4156 0.625 16.2499V3.37061C0.625215 3.20491 0.691132 3.04606 0.808296 2.9289C0.925459 2.81174 1.08431 2.74582 1.25 2.74561H10.9195C11.0852 2.74582 11.244 2.81174 11.3612 2.9289C11.4784 3.04607 11.5443 3.20491 11.5445 3.37061V16.2499Z" fill="white"/>
</svg>
