<svg width="18" height="17" viewBox="0 0 18 17" fill="none" xmlns="http://www.w3.org/2000/svg">
<path fill-rule="evenodd" clip-rule="evenodd" d="M12.2687 5.47619C12.3706 5.33947 12.3526 5.13755 12.2196 5.0045C12.0745 4.85936 11.8473 4.85115 11.7123 4.98617L8.80322 7.89527L5.89412 4.98617L5.85854 4.95539C5.72182 4.85347 5.5199 4.87146 5.38686 5.0045C5.24172 5.14964 5.23351 5.37675 5.36852 5.51176L8.27763 8.42087L5.19332 11.5052L5.16255 11.5407C5.06063 11.6775 5.07861 11.8794 5.21166 12.0124C5.3568 12.1576 5.5839 12.1658 5.71892 12.0308L8.80322 8.94646L11.8875 12.0308L11.9231 12.0615C12.0598 12.1635 12.2617 12.1455 12.3948 12.0124C12.5399 11.8673 12.5481 11.6402 12.4131 11.5052L9.32882 8.42087L12.2379 5.51176L12.2687 5.47619Z" fill="#9B9B9B"/>
</svg>
