<svg width="22" height="22" viewBox="0 0 22 22" fill="none" xmlns="http://www.w3.org/2000/svg">
<path fill-rule="evenodd" clip-rule="evenodd" d="M11 22C17.0751 22 22 17.0751 22 11C22 4.92487 17.0751 4.30546e-07 11 9.61651e-07C4.92487 1.49276e-06 -1.49276e-06 4.92487 -9.61651e-07 11C-4.30546e-07 17.0751 4.92487 22 11 22ZM11 20C6.02944 20 2 15.9706 2 11C2 6.02944 6.02944 2 11 2C15.9706 2 20 6.02944 20 11C20 15.9706 15.9706 20 11 20ZM11 12C10.4872 12 10.0645 11.614 10.0067 11.1166L10 11L10 7C10 6.44772 10.4477 6 11 6C11.5128 6 11.9355 6.38604 11.9933 6.88338L12 7L12 11C12 11.5523 11.5523 12 11 12ZM9.99 15C9.99 15.5523 10.4377 16 10.99 16L11.1166 15.9933C11.614 15.9355 12 15.5128 12 15C12 14.4477 11.5523 14 11 14L10.8734 14.0067C10.376 14.0645 9.99 14.4872 9.99 15Z" fill="#F96446"/>
</svg>
