<svg width="316" height="42" viewBox="0 0 316 42" fill="none" xmlns="http://www.w3.org/2000/svg">
<path fill-rule="evenodd" clip-rule="evenodd" d="M11 31C17.0751 31 22 26.0751 22 20C22 13.9249 17.0751 9 11 9C4.92487 9 -1.49276e-06 13.9249 -9.61651e-07 20C-4.30546e-07 26.0751 4.92487 31 11 31ZM11 29C6.02944 29 2 24.9706 2 20C2 15.0294 6.02944 11 11 11C15.9706 11 20 15.0294 20 20C20 24.9706 15.9706 29 11 29ZM11 21C10.4872 21 10.0645 20.614 10.0067 20.1166L10 20L10 16C10 15.4477 10.4477 15 11 15C11.5128 15 11.9355 15.386 11.9933 15.8834L12 16L12 20C12 20.5523 11.5523 21 11 21ZM9.99 24C9.99 24.5523 10.4377 25 10.99 25L11.1166 24.9933C11.614 24.9355 12 24.5128 12 24C12 23.4477 11.5523 23 11 23L10.8734 23.0067C10.376 23.0645 9.99 23.4872 9.99 24Z" fill="#F96446"/>
<path d="M41.2823 22.868H41.3083L44.0253 15.796H46.0273V25H44.7403V17.304H44.7143L41.6593 25H40.8403L37.7983 17.304H37.7723V25H36.5243V15.796H38.5263L41.2823 22.868ZM50.5424 23.674H50.5684L52.2714 18.838H53.5714L50.5814 26.456C50.4774 26.716 50.3647 26.9457 50.2434 27.145C50.1221 27.353 49.9791 27.5263 49.8144 27.665C49.6497 27.8123 49.4547 27.925 49.2294 28.003C49.0127 28.081 48.7527 28.12 48.4494 28.12C48.3194 28.12 48.1851 28.1113 48.0464 28.094C47.9164 28.0853 47.7821 28.0637 47.6434 28.029L47.7604 26.95C47.9684 27.0193 48.1721 27.054 48.3714 27.054C48.6921 27.054 48.9304 26.963 49.0864 26.781C49.2424 26.6077 49.3854 26.3563 49.5154 26.027L49.9054 25L47.2664 18.838H48.6314L50.5424 23.674ZM65.9592 23.57C65.5952 24.064 65.1229 24.467 64.5422 24.779C63.9615 25.0823 63.2639 25.234 62.4492 25.234C61.7472 25.234 61.0972 25.117 60.4992 24.883C59.9099 24.6403 59.3985 24.3067 58.9652 23.882C58.5405 23.4487 58.2069 22.9373 57.9642 22.348C57.7215 21.75 57.6002 21.0957 57.6002 20.385C57.6002 19.6657 57.7215 19.0113 57.9642 18.422C58.2155 17.824 58.5579 17.317 58.9912 16.901C59.4332 16.4763 59.9532 16.147 60.5512 15.913C61.1492 15.679 61.7992 15.562 62.5012 15.562C62.8132 15.562 63.1295 15.5923 63.4502 15.653C63.7709 15.7137 64.0785 15.8047 64.3732 15.926C64.6679 16.0473 64.9365 16.199 65.1792 16.381C65.4219 16.5543 65.6299 16.758 65.8032 16.992L64.7892 17.772C64.5639 17.46 64.2432 17.2043 63.8272 17.005C63.4199 16.797 62.9779 16.693 62.5012 16.693C61.9639 16.693 61.4785 16.7927 61.0452 16.992C60.6205 17.1827 60.2565 17.447 59.9532 17.785C59.6499 18.123 59.4159 18.5173 59.2512 18.968C59.0865 19.41 59.0042 19.8823 59.0042 20.385C59.0042 20.905 59.0822 21.3903 59.2382 21.841C59.4029 22.2917 59.6325 22.686 59.9272 23.024C60.2305 23.3533 60.5945 23.6133 61.0192 23.804C61.4525 23.9947 61.9335 24.09 62.4622 24.09C62.9822 24.09 63.4545 23.986 63.8792 23.778C64.3039 23.57 64.6549 23.2667 64.9322 22.868L65.9592 23.57ZM70.8138 21.009C70.8138 20.5497 70.6751 20.2117 70.3978 19.995C70.1204 19.7697 69.7521 19.657 69.2928 19.657C68.9461 19.657 68.6168 19.7263 68.3048 19.865C68.0014 19.995 67.7458 20.164 67.5378 20.372L66.8878 19.592C67.1911 19.306 67.5594 19.0807 67.9928 18.916C68.4348 18.7513 68.9071 18.669 69.4098 18.669C69.8518 18.669 70.2331 18.734 70.5538 18.864C70.8831 18.9853 71.1518 19.1543 71.3598 19.371C71.5678 19.5877 71.7238 19.8433 71.8278 20.138C71.9318 20.4327 71.9838 20.749 71.9838 21.087V23.778C71.9838 23.986 71.9881 24.207 71.9968 24.441C72.0141 24.6663 72.0401 24.8527 72.0748 25H70.9698C70.9004 24.7053 70.8658 24.4107 70.8658 24.116H70.8268C70.6014 24.4453 70.3154 24.701 69.9688 24.883C69.6308 25.065 69.2278 25.156 68.7598 25.156C68.5171 25.156 68.2614 25.1213 67.9928 25.052C67.7328 24.9913 67.4944 24.8873 67.2778 24.74C67.0611 24.5927 66.8791 24.3977 66.7318 24.155C66.5931 23.9123 66.5238 23.6133 66.5238 23.258C66.5238 22.79 66.6494 22.4217 66.9008 22.153C67.1521 21.8757 67.4814 21.6677 67.8888 21.529C68.2961 21.3817 68.7554 21.2863 69.2668 21.243C69.7781 21.1997 70.2938 21.178 70.8138 21.178V21.009ZM70.5148 22.062C70.2114 22.062 69.8951 22.075 69.5658 22.101C69.2451 22.127 68.9504 22.179 68.6818 22.257C68.4218 22.335 68.2051 22.452 68.0318 22.608C67.8584 22.764 67.7718 22.972 67.7718 23.232C67.7718 23.414 67.8064 23.5657 67.8758 23.687C67.9538 23.8083 68.0534 23.908 68.1748 23.986C68.2961 24.064 68.4304 24.1203 68.5778 24.155C68.7251 24.181 68.8768 24.194 69.0328 24.194C69.6048 24.194 70.0424 24.025 70.3458 23.687C70.6578 23.3403 70.8138 22.907 70.8138 22.387V22.062H70.5148ZM77.3527 20.398C77.214 20.1727 77.019 19.9907 76.7677 19.852C76.5163 19.7047 76.2347 19.631 75.9227 19.631C75.784 19.631 75.6453 19.6483 75.5067 19.683C75.368 19.709 75.2423 19.7567 75.1297 19.826C75.0257 19.8867 74.939 19.969 74.8697 20.073C74.809 20.1683 74.7787 20.2897 74.7787 20.437C74.7787 20.697 74.8957 20.892 75.1297 21.022C75.3637 21.1433 75.7147 21.256 76.1827 21.36C76.4773 21.4293 76.7503 21.5117 77.0017 21.607C77.253 21.7023 77.4697 21.8237 77.6517 21.971C77.8423 22.1097 77.9897 22.2787 78.0937 22.478C78.1977 22.6773 78.2497 22.9113 78.2497 23.18C78.2497 23.544 78.1803 23.8517 78.0417 24.103C77.903 24.3543 77.7167 24.5623 77.4827 24.727C77.2573 24.883 76.9973 24.9957 76.7027 25.065C76.408 25.1343 76.1047 25.169 75.7927 25.169C75.3247 25.169 74.8653 25.078 74.4147 24.896C73.9727 24.714 73.6043 24.4367 73.3097 24.064L74.1807 23.323C74.3453 23.5657 74.5707 23.7693 74.8567 23.934C75.1513 24.0987 75.472 24.181 75.8187 24.181C75.9747 24.181 76.122 24.168 76.2607 24.142C76.408 24.1073 76.538 24.0553 76.6507 23.986C76.772 23.9167 76.8673 23.8257 76.9367 23.713C77.006 23.6003 77.0407 23.4573 77.0407 23.284C77.0407 22.998 76.902 22.7857 76.6247 22.647C76.356 22.5083 75.9573 22.3783 75.4287 22.257C75.2207 22.205 75.0083 22.1443 74.7917 22.075C74.5837 21.997 74.393 21.893 74.2197 21.763C74.0463 21.633 73.9033 21.4727 73.7907 21.282C73.6867 21.0827 73.6347 20.84 73.6347 20.554C73.6347 20.2247 73.6997 19.943 73.8297 19.709C73.9683 19.4663 74.146 19.2713 74.3627 19.124C74.5793 18.968 74.8263 18.8553 75.1037 18.786C75.381 18.708 75.667 18.669 75.9617 18.669C76.4037 18.669 76.8283 18.7557 77.2357 18.929C77.6517 19.1023 77.9723 19.3537 78.1977 19.683L77.3527 20.398ZM81.075 19.774C81.2224 19.4707 81.4737 19.2107 81.829 18.994C82.1844 18.7773 82.583 18.669 83.025 18.669C83.4237 18.669 83.766 18.7383 84.052 18.877C84.338 19.007 84.5764 19.1847 84.767 19.41C84.9577 19.6353 85.0964 19.8997 85.183 20.203C85.2784 20.5063 85.326 20.8313 85.326 21.178V25H84.104V21.594C84.104 21.3427 84.0824 21.1043 84.039 20.879C84.0044 20.6537 83.935 20.4543 83.831 20.281C83.727 20.1077 83.584 19.969 83.402 19.865C83.2287 19.761 82.999 19.709 82.713 19.709C82.2277 19.709 81.829 19.8953 81.517 20.268C81.205 20.632 81.049 21.1217 81.049 21.737V25H79.827V15.172H81.049V19.774H81.075ZM90.7078 15.796H93.8798C94.2265 15.796 94.5732 15.835 94.9198 15.913C95.2665 15.991 95.5742 16.121 95.8428 16.303C96.1202 16.485 96.3412 16.7233 96.5058 17.018C96.6792 17.3127 96.7658 17.681 96.7658 18.123C96.7658 18.6343 96.6185 19.0633 96.3238 19.41C96.0292 19.7567 95.6392 19.995 95.1538 20.125V20.151C95.4485 20.1857 95.7215 20.2637 95.9728 20.385C96.2242 20.4977 96.4408 20.6493 96.6228 20.84C96.8048 21.0307 96.9435 21.256 97.0388 21.516C97.1428 21.776 97.1948 22.0663 97.1948 22.387C97.1948 22.829 97.1038 23.2147 96.9218 23.544C96.7398 23.8733 96.4928 24.1463 96.1808 24.363C95.8688 24.571 95.5005 24.7313 95.0758 24.844C94.6598 24.948 94.2135 25 93.7368 25H90.7078V15.796ZM91.9948 19.683H93.6718C93.9145 19.683 94.1442 19.657 94.3608 19.605C94.5862 19.5443 94.7812 19.4577 94.9458 19.345C95.1105 19.2237 95.2405 19.0763 95.3358 18.903C95.4312 18.721 95.4788 18.5043 95.4788 18.253C95.4788 17.759 95.2968 17.408 94.9328 17.2C94.5688 16.9833 94.0792 16.875 93.4638 16.875H91.9948V19.683ZM91.9948 23.908H93.6068C93.8755 23.908 94.1442 23.8863 94.4128 23.843C94.6902 23.791 94.9372 23.7043 95.1538 23.583C95.3792 23.4617 95.5568 23.3013 95.6868 23.102C95.8255 22.894 95.8948 22.634 95.8948 22.322C95.8948 21.776 95.7085 21.3817 95.3358 21.139C94.9632 20.8963 94.4258 20.775 93.7238 20.775H91.9948V23.908ZM102.819 21.009C102.819 20.5497 102.68 20.2117 102.403 19.995C102.125 19.7697 101.757 19.657 101.298 19.657C100.951 19.657 100.622 19.7263 100.31 19.865C100.006 19.995 99.7507 20.164 99.5427 20.372L98.8927 19.592C99.196 19.306 99.5643 19.0807 99.9977 18.916C100.44 18.7513 100.912 18.669 101.415 18.669C101.857 18.669 102.238 18.734 102.559 18.864C102.888 18.9853 103.157 19.1543 103.365 19.371C103.573 19.5877 103.729 19.8433 103.833 20.138C103.937 20.4327 103.989 20.749 103.989 21.087V23.778C103.989 23.986 103.993 24.207 104.002 24.441C104.019 24.6663 104.045 24.8527 104.08 25H102.975C102.905 24.7053 102.871 24.4107 102.871 24.116H102.832C102.606 24.4453 102.32 24.701 101.974 24.883C101.636 25.065 101.233 25.156 100.765 25.156C100.522 25.156 100.266 25.1213 99.9977 25.052C99.7377 24.9913 99.4993 24.8873 99.2827 24.74C99.066 24.5927 98.884 24.3977 98.7367 24.155C98.598 23.9123 98.5287 23.6133 98.5287 23.258C98.5287 22.79 98.6543 22.4217 98.9057 22.153C99.157 21.8757 99.4863 21.6677 99.8937 21.529C100.301 21.3817 100.76 21.2863 101.272 21.243C101.783 21.1997 102.299 21.178 102.819 21.178V21.009ZM102.52 22.062C102.216 22.062 101.9 22.075 101.571 22.101C101.25 22.127 100.955 22.179 100.687 22.257C100.427 22.335 100.21 22.452 100.037 22.608C99.8633 22.764 99.7767 22.972 99.7767 23.232C99.7767 23.414 99.8113 23.5657 99.8807 23.687C99.9587 23.8083 100.058 23.908 100.18 23.986C100.301 24.064 100.435 24.1203 100.583 24.155C100.73 24.181 100.882 24.194 101.038 24.194C101.61 24.194 102.047 24.025 102.351 23.687C102.663 23.3403 102.819 22.907 102.819 22.387V22.062H102.52ZM107.278 25H106.056V15.172H107.278V25ZM113.242 21.009C113.242 20.5497 113.103 20.2117 112.826 19.995C112.548 19.7697 112.18 19.657 111.721 19.657C111.374 19.657 111.045 19.7263 110.733 19.865C110.429 19.995 110.174 20.164 109.966 20.372L109.316 19.592C109.619 19.306 109.987 19.0807 110.421 18.916C110.863 18.7513 111.335 18.669 111.838 18.669C112.28 18.669 112.661 18.734 112.982 18.864C113.311 18.9853 113.58 19.1543 113.788 19.371C113.996 19.5877 114.152 19.8433 114.256 20.138C114.36 20.4327 114.412 20.749 114.412 21.087V23.778C114.412 23.986 114.416 24.207 114.425 24.441C114.442 24.6663 114.468 24.8527 114.503 25H113.398C113.328 24.7053 113.294 24.4107 113.294 24.116H113.255C113.029 24.4453 112.743 24.701 112.397 24.883C112.059 25.065 111.656 25.156 111.188 25.156C110.945 25.156 110.689 25.1213 110.421 25.052C110.161 24.9913 109.922 24.8873 109.706 24.74C109.489 24.5927 109.307 24.3977 109.16 24.155C109.021 23.9123 108.952 23.6133 108.952 23.258C108.952 22.79 109.077 22.4217 109.329 22.153C109.58 21.8757 109.909 21.6677 110.317 21.529C110.724 21.3817 111.183 21.2863 111.695 21.243C112.206 21.1997 112.722 21.178 113.242 21.178V21.009ZM112.943 22.062C112.639 22.062 112.323 22.075 111.994 22.101C111.673 22.127 111.378 22.179 111.11 22.257C110.85 22.335 110.633 22.452 110.46 22.608C110.286 22.764 110.2 22.972 110.2 23.232C110.2 23.414 110.234 23.5657 110.304 23.687C110.382 23.8083 110.481 23.908 110.603 23.986C110.724 24.064 110.858 24.1203 111.006 24.155C111.153 24.181 111.305 24.194 111.461 24.194C112.033 24.194 112.47 24.025 112.774 23.687C113.086 23.3403 113.242 22.907 113.242 22.387V22.062H112.943ZM117.557 18.838C117.575 18.994 117.588 19.1717 117.596 19.371C117.605 19.5617 117.609 19.722 117.609 19.852H117.648C117.726 19.6873 117.83 19.5357 117.96 19.397C118.099 19.2497 118.255 19.124 118.428 19.02C118.602 18.9073 118.792 18.8207 119 18.76C119.208 18.6993 119.425 18.669 119.65 18.669C120.049 18.669 120.391 18.7383 120.677 18.877C120.963 19.007 121.202 19.1847 121.392 19.41C121.583 19.6353 121.722 19.8997 121.808 20.203C121.904 20.5063 121.951 20.8313 121.951 21.178V25H120.729V21.581C120.729 21.3297 120.708 21.0913 120.664 20.866C120.63 20.6407 120.56 20.4413 120.456 20.268C120.352 20.0947 120.209 19.956 120.027 19.852C119.845 19.748 119.611 19.696 119.325 19.696C118.84 19.696 118.441 19.8823 118.129 20.255C117.826 20.619 117.674 21.1087 117.674 21.724V25H116.452V20.164C116.452 19.9993 116.448 19.787 116.439 19.527C116.431 19.267 116.418 19.0373 116.4 18.838H117.557ZM128.335 20.398C128.205 20.1987 128.01 20.034 127.75 19.904C127.49 19.7653 127.212 19.696 126.918 19.696C126.597 19.696 126.311 19.7567 126.06 19.878C125.817 19.9993 125.609 20.164 125.436 20.372C125.262 20.5713 125.128 20.8053 125.033 21.074C124.946 21.3427 124.903 21.6243 124.903 21.919C124.903 22.2137 124.946 22.4953 125.033 22.764C125.128 23.0327 125.262 23.271 125.436 23.479C125.609 23.6783 125.821 23.8387 126.073 23.96C126.324 24.0813 126.61 24.142 126.931 24.142C127.243 24.142 127.524 24.0813 127.776 23.96C128.036 23.8387 128.248 23.674 128.413 23.466L129.232 24.207C128.972 24.5103 128.647 24.7487 128.257 24.922C127.867 25.0867 127.425 25.169 126.931 25.169C126.454 25.169 126.012 25.091 125.605 24.935C125.206 24.779 124.859 24.5623 124.565 24.285C124.27 23.999 124.036 23.6567 123.863 23.258C123.698 22.8593 123.616 22.413 123.616 21.919C123.616 21.4337 123.698 20.9917 123.863 20.593C124.027 20.1943 124.257 19.852 124.552 19.566C124.846 19.28 125.193 19.059 125.592 18.903C125.999 18.747 126.437 18.669 126.905 18.669C127.338 18.669 127.767 18.7557 128.192 18.929C128.625 19.1023 128.967 19.3537 129.219 19.683L128.335 20.398ZM134.954 21.373C134.945 21.1303 134.902 20.905 134.824 20.697C134.754 20.4803 134.646 20.294 134.499 20.138C134.36 19.982 134.182 19.8607 133.966 19.774C133.758 19.6787 133.511 19.631 133.225 19.631C132.965 19.631 132.718 19.6787 132.484 19.774C132.258 19.8607 132.059 19.982 131.886 20.138C131.721 20.294 131.582 20.4803 131.47 20.697C131.366 20.905 131.305 21.1303 131.288 21.373H134.954ZM136.189 21.867C136.189 21.9363 136.189 22.0057 136.189 22.075C136.189 22.1443 136.184 22.2137 136.176 22.283H131.288C131.296 22.543 131.353 22.79 131.457 23.024C131.569 23.2493 131.717 23.4487 131.899 23.622C132.081 23.7867 132.289 23.9167 132.523 24.012C132.765 24.1073 133.021 24.155 133.29 24.155C133.706 24.155 134.065 24.064 134.369 23.882C134.672 23.7 134.91 23.479 135.084 23.219L135.942 23.908C135.612 24.3413 135.222 24.662 134.772 24.87C134.33 25.0693 133.836 25.169 133.29 25.169C132.822 25.169 132.388 25.091 131.99 24.935C131.591 24.779 131.249 24.5623 130.963 24.285C130.677 23.999 130.451 23.6567 130.287 23.258C130.122 22.8593 130.04 22.4173 130.04 21.932C130.04 21.4553 130.118 21.0177 130.274 20.619C130.438 20.2117 130.664 19.865 130.95 19.579C131.236 19.293 131.574 19.072 131.964 18.916C132.354 18.7513 132.774 18.669 133.225 18.669C133.675 18.669 134.083 18.7427 134.447 18.89C134.819 19.0373 135.131 19.2497 135.383 19.527C135.643 19.8043 135.842 20.1423 135.981 20.541C136.119 20.931 136.189 21.373 136.189 21.867ZM147.385 21.906C147.385 22.3827 147.298 22.8203 147.125 23.219C146.96 23.6177 146.726 23.9643 146.423 24.259C146.128 24.545 145.777 24.7703 145.37 24.935C144.962 25.091 144.525 25.169 144.057 25.169C143.589 25.169 143.151 25.091 142.744 24.935C142.336 24.7703 141.985 24.545 141.691 24.259C141.396 23.9643 141.162 23.6177 140.989 23.219C140.824 22.8203 140.742 22.3827 140.742 21.906C140.742 21.4293 140.824 20.996 140.989 20.606C141.162 20.2073 141.396 19.865 141.691 19.579C141.985 19.293 142.336 19.072 142.744 18.916C143.151 18.7513 143.589 18.669 144.057 18.669C144.525 18.669 144.962 18.7513 145.37 18.916C145.777 19.072 146.128 19.293 146.423 19.579C146.726 19.865 146.96 20.2073 147.125 20.606C147.298 20.996 147.385 21.4293 147.385 21.906ZM146.111 21.906C146.111 21.6113 146.063 21.3297 145.968 21.061C145.881 20.7923 145.751 20.5583 145.578 20.359C145.404 20.151 145.188 19.9863 144.928 19.865C144.676 19.7437 144.386 19.683 144.057 19.683C143.727 19.683 143.433 19.7437 143.173 19.865C142.921 19.9863 142.709 20.151 142.536 20.359C142.362 20.5583 142.228 20.7923 142.133 21.061C142.046 21.3297 142.003 21.6113 142.003 21.906C142.003 22.2007 142.046 22.4823 142.133 22.751C142.228 23.0197 142.362 23.258 142.536 23.466C142.709 23.674 142.921 23.8387 143.173 23.96C143.433 24.0813 143.727 24.142 144.057 24.142C144.386 24.142 144.676 24.0813 144.928 23.96C145.188 23.8387 145.404 23.674 145.578 23.466C145.751 23.258 145.881 23.0197 145.968 22.751C146.063 22.4823 146.111 22.2007 146.111 21.906ZM151.978 19.839H150.548V25H149.326V19.839H148.104V18.838H149.326V17.551C149.326 17.187 149.365 16.8533 149.443 16.55C149.53 16.238 149.664 15.9693 149.846 15.744C150.037 15.5187 150.275 15.341 150.561 15.211C150.856 15.081 151.211 15.016 151.627 15.016C151.922 15.016 152.178 15.0463 152.394 15.107L152.251 16.16C152.156 16.134 152.061 16.1123 151.965 16.095C151.87 16.0777 151.762 16.069 151.64 16.069C151.406 16.069 151.216 16.1123 151.068 16.199C150.93 16.277 150.821 16.3853 150.743 16.524C150.665 16.6627 150.613 16.823 150.587 17.005C150.561 17.1783 150.548 17.3603 150.548 17.551V18.838H151.978V19.839ZM156.885 25H155.455L159.446 15.796H160.616L164.568 25H163.112L162.176 22.738H157.808L156.885 25ZM158.263 21.607H161.708L159.992 17.291L158.263 21.607ZM167.037 23.856H171.847V25H165.75V15.796H171.652V16.927H167.037V19.683H171.379V20.788H167.037V23.856ZM173.557 15.796H176.716C177.306 15.796 177.895 15.8827 178.484 16.056C179.074 16.2293 179.607 16.5023 180.083 16.875C180.56 17.2477 180.946 17.7243 181.24 18.305C181.535 18.8857 181.682 19.5833 181.682 20.398C181.682 21.1867 181.535 21.8713 181.24 22.452C180.946 23.024 180.56 23.5007 180.083 23.882C179.607 24.2547 179.074 24.5363 178.484 24.727C177.895 24.909 177.306 25 176.716 25H173.557V15.796ZM174.844 23.869H176.456C177.011 23.869 177.522 23.791 177.99 23.635C178.467 23.479 178.874 23.2537 179.212 22.959C179.559 22.6643 179.828 22.3003 180.018 21.867C180.209 21.4337 180.304 20.944 180.304 20.398C180.304 19.826 180.209 19.3233 180.018 18.89C179.828 18.4567 179.559 18.097 179.212 17.811C178.874 17.5163 178.467 17.2953 177.99 17.148C177.522 16.992 177.011 16.914 176.456 16.914H174.844V23.869ZM188.348 19.67H188.751C189.011 19.67 189.262 19.6483 189.505 19.605C189.756 19.553 189.977 19.4707 190.168 19.358C190.359 19.2367 190.51 19.0763 190.623 18.877C190.744 18.6777 190.805 18.4307 190.805 18.136C190.805 17.902 190.762 17.694 190.675 17.512C190.588 17.3213 190.467 17.161 190.311 17.031C190.164 16.901 189.99 16.8013 189.791 16.732C189.6 16.654 189.397 16.615 189.18 16.615C188.79 16.615 188.456 16.7147 188.179 16.914C187.91 17.1133 187.707 17.3907 187.568 17.746L186.424 17.343C186.649 16.7883 187.009 16.355 187.503 16.043C188.006 15.7223 188.582 15.562 189.232 15.562C189.613 15.562 189.973 15.6183 190.311 15.731C190.658 15.835 190.961 15.991 191.221 16.199C191.481 16.407 191.685 16.667 191.832 16.979C191.988 17.291 192.066 17.6507 192.066 18.058C192.066 18.318 192.023 18.5607 191.936 18.786C191.858 19.0113 191.745 19.215 191.598 19.397C191.459 19.579 191.29 19.735 191.091 19.865C190.892 19.995 190.675 20.0903 190.441 20.151V20.177C190.71 20.229 190.957 20.32 191.182 20.45C191.416 20.58 191.615 20.7447 191.78 20.944C191.945 21.1347 192.075 21.3557 192.17 21.607C192.265 21.8583 192.313 22.1313 192.313 22.426C192.313 22.8853 192.226 23.2927 192.053 23.648C191.88 23.9947 191.65 24.285 191.364 24.519C191.078 24.753 190.749 24.9307 190.376 25.052C190.003 25.1733 189.622 25.234 189.232 25.234C188.504 25.234 187.863 25.0693 187.308 24.74C186.753 24.4107 186.35 23.8993 186.099 23.206L187.269 22.816C187.408 23.2147 187.642 23.5397 187.971 23.791C188.309 24.0423 188.721 24.168 189.206 24.168C189.44 24.168 189.665 24.1333 189.882 24.064C190.107 23.986 190.307 23.8733 190.48 23.726C190.653 23.5787 190.792 23.3967 190.896 23.18C191 22.9633 191.052 22.7077 191.052 22.413C191.052 22.0923 190.983 21.8237 190.844 21.607C190.705 21.3903 190.523 21.217 190.298 21.087C190.081 20.9483 189.834 20.853 189.557 20.801C189.28 20.7403 189.007 20.71 188.738 20.71H188.348V19.67ZM197.185 15.562C197.731 15.562 198.199 15.6877 198.589 15.939C198.987 16.1903 199.312 16.537 199.564 16.979C199.824 17.4123 200.014 17.9237 200.136 18.513C200.257 19.1023 200.318 19.7307 200.318 20.398C200.318 21.074 200.257 21.7067 200.136 22.296C200.014 22.8767 199.824 23.388 199.564 23.83C199.312 24.2633 198.987 24.6057 198.589 24.857C198.199 25.1083 197.731 25.234 197.185 25.234C196.639 25.234 196.166 25.1083 195.768 24.857C195.369 24.6057 195.04 24.2633 194.78 23.83C194.528 23.388 194.342 22.8767 194.221 22.296C194.099 21.7067 194.039 21.074 194.039 20.398C194.039 19.7307 194.099 19.1023 194.221 18.513C194.342 17.9237 194.528 17.4123 194.78 16.979C195.04 16.537 195.369 16.1903 195.768 15.939C196.166 15.6877 196.639 15.562 197.185 15.562ZM197.185 16.615C196.803 16.615 196.491 16.7407 196.249 16.992C196.006 17.2347 195.815 17.5467 195.677 17.928C195.547 18.3007 195.456 18.708 195.404 19.15C195.352 19.592 195.326 20.008 195.326 20.398C195.326 20.788 195.352 21.204 195.404 21.646C195.456 22.088 195.547 22.4953 195.677 22.868C195.815 23.2407 196.006 23.5527 196.249 23.804C196.491 24.0467 196.803 24.168 197.185 24.168C197.557 24.168 197.861 24.0467 198.095 23.804C198.337 23.5527 198.528 23.2407 198.667 22.868C198.805 22.4953 198.901 22.088 198.953 21.646C199.005 21.204 199.031 20.788 199.031 20.398C199.031 20.008 199.005 19.592 198.953 19.15C198.901 18.708 198.805 18.3007 198.667 17.928C198.528 17.5467 198.337 17.2347 198.095 16.992C197.861 16.7407 197.557 16.615 197.185 16.615ZM209.856 21.373C209.847 21.1303 209.804 20.905 209.726 20.697C209.657 20.4803 209.548 20.294 209.401 20.138C209.262 19.982 209.085 19.8607 208.868 19.774C208.66 19.6787 208.413 19.631 208.127 19.631C207.867 19.631 207.62 19.6787 207.386 19.774C207.161 19.8607 206.961 19.982 206.788 20.138C206.623 20.294 206.485 20.4803 206.372 20.697C206.268 20.905 206.207 21.1303 206.19 21.373H209.856ZM211.091 21.867C211.091 21.9363 211.091 22.0057 211.091 22.075C211.091 22.1443 211.087 22.2137 211.078 22.283H206.19C206.199 22.543 206.255 22.79 206.359 23.024C206.472 23.2493 206.619 23.4487 206.801 23.622C206.983 23.7867 207.191 23.9167 207.425 24.012C207.668 24.1073 207.923 24.155 208.192 24.155C208.608 24.155 208.968 24.064 209.271 23.882C209.574 23.7 209.813 23.479 209.986 23.219L210.844 23.908C210.515 24.3413 210.125 24.662 209.674 24.87C209.232 25.0693 208.738 25.169 208.192 25.169C207.724 25.169 207.291 25.091 206.892 24.935C206.493 24.779 206.151 24.5623 205.865 24.285C205.579 23.999 205.354 23.6567 205.189 23.258C205.024 22.8593 204.942 22.4173 204.942 21.932C204.942 21.4553 205.02 21.0177 205.176 20.619C205.341 20.2117 205.566 19.865 205.852 19.579C206.138 19.293 206.476 19.072 206.866 18.916C207.256 18.7513 207.676 18.669 208.127 18.669C208.578 18.669 208.985 18.7427 209.349 18.89C209.722 19.0373 210.034 19.2497 210.285 19.527C210.545 19.8043 210.744 20.1423 210.883 20.541C211.022 20.931 211.091 21.373 211.091 21.867ZM214.178 21.763L211.929 18.838H213.437L214.945 20.957L216.466 18.838H217.896L215.673 21.75L218.156 25H216.635L214.919 22.595L213.177 25H211.708L214.178 21.763ZM220.532 28.12H219.31V18.838H220.506V19.8H220.545C220.744 19.4707 221.035 19.202 221.416 18.994C221.806 18.7773 222.257 18.669 222.768 18.669C223.227 18.669 223.643 18.7513 224.016 18.916C224.397 19.0807 224.722 19.3103 224.991 19.605C225.268 19.8997 225.481 20.2463 225.628 20.645C225.775 21.035 225.849 21.4553 225.849 21.906C225.849 22.3567 225.775 22.7813 225.628 23.18C225.481 23.5787 225.273 23.9253 225.004 24.22C224.735 24.5147 224.41 24.7487 224.029 24.922C223.648 25.0867 223.219 25.169 222.742 25.169C222.3 25.169 221.884 25.0737 221.494 24.883C221.104 24.6923 220.796 24.4237 220.571 24.077H220.532V28.12ZM224.588 21.906C224.588 21.62 224.545 21.3427 224.458 21.074C224.371 20.8053 224.241 20.567 224.068 20.359C223.895 20.151 223.678 19.9863 223.418 19.865C223.167 19.7437 222.872 19.683 222.534 19.683C222.222 19.683 221.936 19.7437 221.676 19.865C221.425 19.9863 221.208 20.151 221.026 20.359C220.844 20.567 220.701 20.8053 220.597 21.074C220.502 21.3427 220.454 21.6243 220.454 21.919C220.454 22.2137 220.502 22.4953 220.597 22.764C220.701 23.0327 220.844 23.271 221.026 23.479C221.208 23.6783 221.425 23.8387 221.676 23.96C221.936 24.0813 222.222 24.142 222.534 24.142C222.872 24.142 223.167 24.0813 223.418 23.96C223.678 23.83 223.895 23.661 224.068 23.453C224.241 23.245 224.371 23.0067 224.458 22.738C224.545 22.4693 224.588 22.192 224.588 21.906ZM228.784 25H227.562V18.838H228.784V25ZM228.992 16.615C228.992 16.8403 228.91 17.0267 228.745 17.174C228.589 17.3213 228.398 17.395 228.173 17.395C227.948 17.395 227.757 17.3213 227.601 17.174C227.445 17.018 227.367 16.8317 227.367 16.615C227.367 16.3897 227.445 16.2033 227.601 16.056C227.757 15.9 227.948 15.822 228.173 15.822C228.398 15.822 228.589 15.9 228.745 16.056C228.91 16.2033 228.992 16.3897 228.992 16.615ZM230.913 20.164C230.913 19.9993 230.909 19.787 230.9 19.527C230.892 19.267 230.879 19.0373 230.861 18.838H232.018C232.036 18.994 232.049 19.176 232.057 19.384C232.066 19.5833 232.07 19.748 232.07 19.878H232.109C232.283 19.514 232.534 19.2237 232.863 19.007C233.201 18.7817 233.578 18.669 233.994 18.669C234.185 18.669 234.345 18.6863 234.475 18.721L234.423 19.852C234.25 19.8087 234.064 19.787 233.864 19.787C233.57 19.787 233.314 19.8433 233.097 19.956C232.881 20.06 232.699 20.203 232.551 20.385C232.413 20.567 232.309 20.7793 232.239 21.022C232.17 21.256 232.135 21.503 232.135 21.763V25H230.913V20.164ZM239.906 21.373C239.897 21.1303 239.854 20.905 239.776 20.697C239.706 20.4803 239.598 20.294 239.451 20.138C239.312 19.982 239.134 19.8607 238.918 19.774C238.71 19.6787 238.463 19.631 238.177 19.631C237.917 19.631 237.67 19.6787 237.436 19.774C237.21 19.8607 237.011 19.982 236.838 20.138C236.673 20.294 236.534 20.4803 236.422 20.697C236.318 20.905 236.257 21.1303 236.24 21.373H239.906ZM241.141 21.867C241.141 21.9363 241.141 22.0057 241.141 22.075C241.141 22.1443 241.136 22.2137 241.128 22.283H236.24C236.248 22.543 236.305 22.79 236.409 23.024C236.521 23.2493 236.669 23.4487 236.851 23.622C237.033 23.7867 237.241 23.9167 237.475 24.012C237.717 24.1073 237.973 24.155 238.242 24.155C238.658 24.155 239.017 24.064 239.321 23.882C239.624 23.7 239.862 23.479 240.036 23.219L240.894 23.908C240.564 24.3413 240.174 24.662 239.724 24.87C239.282 25.0693 238.788 25.169 238.242 25.169C237.774 25.169 237.34 25.091 236.942 24.935C236.543 24.779 236.201 24.5623 235.915 24.285C235.629 23.999 235.403 23.6567 235.239 23.258C235.074 22.8593 234.992 22.4173 234.992 21.932C234.992 21.4553 235.07 21.0177 235.226 20.619C235.39 20.2117 235.616 19.865 235.902 19.579C236.188 19.293 236.526 19.072 236.916 18.916C237.306 18.7513 237.726 18.669 238.177 18.669C238.627 18.669 239.035 18.7427 239.399 18.89C239.771 19.0373 240.083 19.2497 240.335 19.527C240.595 19.8043 240.794 20.1423 240.933 20.541C241.071 20.931 241.141 21.373 241.141 21.867ZM246.175 20.398C246.036 20.1727 245.841 19.9907 245.59 19.852C245.339 19.7047 245.057 19.631 244.745 19.631C244.606 19.631 244.468 19.6483 244.329 19.683C244.19 19.709 244.065 19.7567 243.952 19.826C243.848 19.8867 243.761 19.969 243.692 20.073C243.631 20.1683 243.601 20.2897 243.601 20.437C243.601 20.697 243.718 20.892 243.952 21.022C244.186 21.1433 244.537 21.256 245.005 21.36C245.3 21.4293 245.573 21.5117 245.824 21.607C246.075 21.7023 246.292 21.8237 246.474 21.971C246.665 22.1097 246.812 22.2787 246.916 22.478C247.02 22.6773 247.072 22.9113 247.072 23.18C247.072 23.544 247.003 23.8517 246.864 24.103C246.725 24.3543 246.539 24.5623 246.305 24.727C246.08 24.883 245.82 24.9957 245.525 25.065C245.23 25.1343 244.927 25.169 244.615 25.169C244.147 25.169 243.688 25.078 243.237 24.896C242.795 24.714 242.427 24.4367 242.132 24.064L243.003 23.323C243.168 23.5657 243.393 23.7693 243.679 23.934C243.974 24.0987 244.294 24.181 244.641 24.181C244.797 24.181 244.944 24.168 245.083 24.142C245.23 24.1073 245.36 24.0553 245.473 23.986C245.594 23.9167 245.69 23.8257 245.759 23.713C245.828 23.6003 245.863 23.4573 245.863 23.284C245.863 22.998 245.724 22.7857 245.447 22.647C245.178 22.5083 244.78 22.3783 244.251 22.257C244.043 22.205 243.831 22.1443 243.614 22.075C243.406 21.997 243.215 21.893 243.042 21.763C242.869 21.633 242.726 21.4727 242.613 21.282C242.509 21.0827 242.457 20.84 242.457 20.554C242.457 20.2247 242.522 19.943 242.652 19.709C242.791 19.4663 242.968 19.2713 243.185 19.124C243.402 18.968 243.649 18.8553 243.926 18.786C244.203 18.708 244.489 18.669 244.784 18.669C245.226 18.669 245.651 18.7557 246.058 18.929C246.474 19.1023 246.795 19.3537 247.02 19.683L246.175 20.398ZM253.108 25H251.886V18.838H253.108V25ZM253.316 16.615C253.316 16.8403 253.234 17.0267 253.069 17.174C252.913 17.3213 252.723 17.395 252.497 17.395C252.272 17.395 252.081 17.3213 251.925 17.174C251.769 17.018 251.691 16.8317 251.691 16.615C251.691 16.3897 251.769 16.2033 251.925 16.056C252.081 15.9 252.272 15.822 252.497 15.822C252.723 15.822 252.913 15.9 253.069 16.056C253.234 16.2033 253.316 16.3897 253.316 16.615ZM256.343 18.838C256.36 18.994 256.373 19.1717 256.382 19.371C256.39 19.5617 256.395 19.722 256.395 19.852H256.434C256.512 19.6873 256.616 19.5357 256.746 19.397C256.884 19.2497 257.04 19.124 257.214 19.02C257.387 18.9073 257.578 18.8207 257.786 18.76C257.994 18.6993 258.21 18.669 258.436 18.669C258.834 18.669 259.177 18.7383 259.463 18.877C259.749 19.007 259.987 19.1847 260.178 19.41C260.368 19.6353 260.507 19.8997 260.594 20.203C260.689 20.5063 260.737 20.8313 260.737 21.178V25H259.515V21.581C259.515 21.3297 259.493 21.0913 259.45 20.866C259.415 20.6407 259.346 20.4413 259.242 20.268C259.138 20.0947 258.995 19.956 258.813 19.852C258.631 19.748 258.397 19.696 258.111 19.696C257.625 19.696 257.227 19.8823 256.915 20.255C256.611 20.619 256.46 21.1087 256.46 21.724V25H255.238V20.164C255.238 19.9993 255.233 19.787 255.225 19.527C255.216 19.267 255.203 19.0373 255.186 18.838H256.343ZM265.885 25V23.18L269.473 19.93C269.698 19.7133 269.88 19.4923 270.019 19.267C270.158 19.0417 270.227 18.7903 270.227 18.513C270.227 18.1837 270.123 17.9193 269.915 17.72C269.707 17.512 269.43 17.408 269.083 17.408C268.719 17.408 268.42 17.538 268.186 17.798C267.961 18.0493 267.826 18.383 267.783 18.799L265.69 18.513C265.742 18.045 265.868 17.629 266.067 17.265C266.275 16.901 266.535 16.5933 266.847 16.342C267.159 16.082 267.514 15.887 267.913 15.757C268.32 15.6183 268.749 15.549 269.2 15.549C269.625 15.549 270.036 15.6053 270.435 15.718C270.834 15.8307 271.189 16.004 271.501 16.238C271.813 16.472 272.06 16.7667 272.242 17.122C272.433 17.4773 272.528 17.8933 272.528 18.37C272.528 18.6993 272.485 18.9983 272.398 19.267C272.311 19.527 272.19 19.7697 272.034 19.995C271.887 20.2203 271.713 20.4327 271.514 20.632C271.323 20.8227 271.124 21.0133 270.916 21.204L268.784 23.102H272.541V25H265.885ZM286.197 20.372C286.197 21.178 286.046 21.8757 285.742 22.465C285.448 23.0457 285.053 23.5267 284.559 23.908C284.074 24.2807 283.524 24.558 282.908 24.74C282.293 24.9133 281.669 25 281.036 25H277.604V15.796H280.932C281.582 15.796 282.224 15.874 282.856 16.03C283.489 16.1773 284.052 16.4287 284.546 16.784C285.04 17.1307 285.439 17.5987 285.742 18.188C286.046 18.7773 286.197 19.5053 286.197 20.372ZM283.883 20.372C283.883 19.852 283.797 19.423 283.623 19.085C283.459 18.7383 283.233 18.4653 282.947 18.266C282.67 18.058 282.349 17.9107 281.985 17.824C281.63 17.7373 281.262 17.694 280.88 17.694H279.775V23.076H280.828C281.227 23.076 281.608 23.0327 281.972 22.946C282.345 22.8507 282.67 22.699 282.947 22.491C283.233 22.283 283.459 22.0057 283.623 21.659C283.797 21.3123 283.883 20.8833 283.883 20.372ZM291.377 22.179H291.104C290.87 22.179 290.631 22.192 290.389 22.218C290.155 22.2353 289.942 22.2743 289.752 22.335C289.57 22.3957 289.418 22.4867 289.297 22.608C289.175 22.7207 289.115 22.8723 289.115 23.063C289.115 23.1843 289.141 23.2883 289.193 23.375C289.253 23.4617 289.327 23.531 289.414 23.583C289.5 23.635 289.6 23.674 289.713 23.7C289.825 23.7173 289.934 23.726 290.038 23.726C290.471 23.726 290.8 23.609 291.026 23.375C291.26 23.1323 291.377 22.8073 291.377 22.4V22.179ZM287.464 19.41C287.845 19.046 288.287 18.773 288.79 18.591C289.301 18.409 289.821 18.318 290.35 18.318C290.896 18.318 291.355 18.3873 291.728 18.526C292.109 18.656 292.417 18.864 292.651 19.15C292.885 19.4273 293.054 19.7827 293.158 20.216C293.27 20.6407 293.327 21.1477 293.327 21.737V25H291.377V24.311H291.338C291.173 24.5797 290.922 24.7877 290.584 24.935C290.254 25.0823 289.895 25.156 289.505 25.156C289.245 25.156 288.976 25.1213 288.699 25.052C288.421 24.9827 288.166 24.87 287.932 24.714C287.706 24.558 287.52 24.35 287.373 24.09C287.225 23.83 287.152 23.5093 287.152 23.128C287.152 22.66 287.277 22.283 287.529 21.997C287.789 21.711 288.118 21.49 288.517 21.334C288.924 21.178 289.375 21.074 289.869 21.022C290.363 20.97 290.844 20.944 291.312 20.944V20.84C291.312 20.5193 291.199 20.2853 290.974 20.138C290.748 19.982 290.471 19.904 290.142 19.904C289.838 19.904 289.544 19.969 289.258 20.099C288.98 20.229 288.742 20.385 288.543 20.567L287.464 19.41ZM298.571 25.975C298.441 26.313 298.294 26.612 298.129 26.872C297.973 27.1407 297.782 27.366 297.557 27.548C297.34 27.7387 297.08 27.8817 296.777 27.977C296.482 28.0723 296.131 28.12 295.724 28.12C295.525 28.12 295.317 28.107 295.1 28.081C294.892 28.055 294.71 28.0203 294.554 27.977L294.788 26.183C294.892 26.2177 295.005 26.2437 295.126 26.261C295.256 26.287 295.373 26.3 295.477 26.3C295.806 26.3 296.045 26.222 296.192 26.066C296.339 25.9187 296.465 25.7063 296.569 25.429L296.777 24.896L294.073 18.526H296.439L297.882 22.686H297.921L299.208 18.526H301.47L298.571 25.975ZM306.103 20.437C305.93 20.2723 305.726 20.1337 305.492 20.021C305.258 19.9083 305.011 19.852 304.751 19.852C304.552 19.852 304.365 19.891 304.192 19.969C304.027 20.047 303.945 20.1813 303.945 20.372C303.945 20.554 304.036 20.684 304.218 20.762C304.409 20.84 304.712 20.9267 305.128 21.022C305.371 21.074 305.613 21.1477 305.856 21.243C306.107 21.3383 306.333 21.464 306.532 21.62C306.731 21.776 306.892 21.9667 307.013 22.192C307.134 22.4173 307.195 22.686 307.195 22.998C307.195 23.4053 307.113 23.752 306.948 24.038C306.783 24.3153 306.567 24.5407 306.298 24.714C306.038 24.8873 305.743 25.013 305.414 25.091C305.085 25.169 304.755 25.208 304.426 25.208C303.897 25.208 303.377 25.1257 302.866 24.961C302.363 24.7877 301.943 24.5363 301.605 24.207L302.801 22.946C302.992 23.154 303.226 23.3273 303.503 23.466C303.78 23.6047 304.075 23.674 304.387 23.674C304.56 23.674 304.729 23.635 304.894 23.557C305.067 23.4703 305.154 23.323 305.154 23.115C305.154 22.9157 305.05 22.7683 304.842 22.673C304.634 22.5777 304.309 22.478 303.867 22.374C303.642 22.322 303.416 22.2527 303.191 22.166C302.966 22.0793 302.762 21.9623 302.58 21.815C302.407 21.6677 302.264 21.4857 302.151 21.269C302.038 21.0523 301.982 20.7923 301.982 20.489C301.982 20.099 302.064 19.7697 302.229 19.501C302.394 19.2237 302.606 18.9983 302.866 18.825C303.126 18.6517 303.412 18.526 303.724 18.448C304.045 18.3613 304.361 18.318 304.673 18.318C305.158 18.318 305.631 18.396 306.09 18.552C306.558 18.6993 306.952 18.9247 307.273 19.228L306.103 20.437Z" fill="black"/>
</svg>
