<svg width="25" height="29" viewBox="0 0 25 29" fill="none" xmlns="http://www.w3.org/2000/svg">
<path d="M15.7209 13.5445C15.3064 12.6804 14.5901 12.125 13.595 11.8935C13.2709 11.8164 12.9844 11.8087 12.7053 11.8394C12.5471 11.8701 12.4188 11.8935 12.3059 11.9319C12.9844 11.1527 13.8815 10.165 14.9141 9.22379L15.1628 9H14.4843C14.296 9.00768 14.0999 9.00768 13.9112 9H13.8887L13.8358 9.00768C13.8058 9.01536 13.7983 9.02304 13.7229 9.09251C12.969 9.82531 12.2076 10.6279 11.3934 11.5458C10.896 12.1089 10.5266 12.672 10.255 13.2586C9.93884 13.9303 9.81807 14.5168 9.88596 15.0953C9.95384 15.6895 10.165 16.2139 10.5191 16.6231C11.1297 17.3716 11.944 17.7493 12.9161 17.7493C13.0215 17.7493 13.1273 17.7493 13.2327 17.7416C13.8962 17.6875 14.4914 17.4253 15.0117 16.9701C15.9767 16.129 16.2629 14.6865 15.7202 13.5445H15.7209ZM14.6955 15.597C14.4618 16.1141 14.002 16.4841 13.4592 16.6384C12.5096 16.8929 11.5445 16.4611 11.1222 15.5813C11.0089 15.3268 10.9489 15.0565 10.9489 14.7636C10.9489 13.8301 11.567 13.0662 12.4867 12.8505C12.63 12.8198 12.7807 12.804 12.9165 12.804C13.7004 12.804 14.4318 13.2746 14.7408 14.0074C14.952 14.5245 14.937 15.103 14.6955 15.5966V15.597Z" fill="#555555"/>
<circle cx="13.061" cy="13.499" r="6.62448" stroke="#555555" stroke-width="0.999922" stroke-linejoin="round"/>
<path d="M17.762 21.5649L20.8645 21.2458L21.1836 18.1433L23.7109 16.3157L22.436 13.4693L23.7109 10.6229L21.1836 8.7953L20.8645 5.6928L17.762 5.3737L15.9344 2.8464L13.088 4.12131L10.2416 2.8464L8.41403 5.3737L5.31152 5.6928L4.99243 8.7953L2.46513 10.6229L3.74004 13.4693L2.46513 16.3157L4.99243 18.1433L5.31152 21.2458L8.41403 21.5649" stroke="#555555" stroke-width="0.999922" stroke-linejoin="round"/>
<path d="M8.31104 17.8735V27.9999L13.0607 24.6077L17.8103 27.9999V17.8735" stroke="#555555" stroke-width="0.999922" stroke-linejoin="round"/>
</svg>
