<svg width="25" height="23" viewBox="0 0 25 23" fill="none" xmlns="http://www.w3.org/2000/svg">
<path fill-rule="evenodd" clip-rule="evenodd" d="M15.8123 5.271C15.8123 2.88927 13.8816 0.958496 11.4998 0.958496C9.1181 0.958496 7.18733 2.88927 7.18733 5.271H5.51124C4.31044 5.271 3.29512 6.15992 3.13642 7.35019L2.30953 13.5519C2.27314 13.8248 2.25488 14.0998 2.25488 14.3752C2.25488 17.8154 5.04378 20.6043 8.48405 20.6043H14.5156C14.7909 20.6043 15.066 20.5861 15.3389 20.5497C18.749 20.095 21.1448 16.962 20.6901 13.5519L19.8632 7.35019C19.7045 6.15992 18.6892 5.271 17.4884 5.271H15.8123ZM14.854 5.271C14.854 3.41854 13.3523 1.91683 11.4998 1.91683C9.64738 1.91683 8.14566 3.41854 8.14566 5.271H14.854ZM4.08635 7.47684C4.18157 6.76269 4.79076 6.22933 5.51124 6.22933H17.4884C18.2089 6.22933 18.8181 6.76269 18.9133 7.47684L19.7402 13.6786C20.1249 16.564 18.0977 19.215 15.2122 19.5998C14.9813 19.6306 14.7486 19.646 14.5156 19.646H8.48405C5.57305 19.646 3.21322 17.2862 3.21322 14.3752C3.21322 14.1422 3.22866 13.9095 3.25945 13.6786L4.08635 7.47684ZM16.167 7.66683C16.4316 7.66683 16.6462 7.88136 16.6462 8.146C16.6462 10.8043 14.2757 12.9377 11.3753 12.9377C8.47492 12.9377 6.10449 10.8043 6.10449 8.146C6.10449 7.88136 6.31902 7.66683 6.58365 7.66683C6.84829 7.66683 7.06282 7.88136 7.06282 8.146C7.06282 10.2512 8.98299 11.9793 11.3753 11.9793C13.7676 11.9793 15.6878 10.2512 15.6878 8.146C15.6878 7.88136 15.9023 7.66683 16.167 7.66683Z" fill="#555555"/>
<path d="M24.5167 16.7708C24.5167 19.4609 22.3359 21.6417 19.6458 21.6417C16.9557 21.6417 14.775 19.4609 14.775 16.7708C14.775 14.0807 16.9557 11.9 19.6458 11.9C22.3359 11.9 24.5167 14.0807 24.5167 16.7708Z" fill="white" stroke="#555555" stroke-width="0.8"/>
<path fill-rule="evenodd" clip-rule="evenodd" d="M22.5105 14.4592C22.6228 14.3469 22.8048 14.3469 22.9171 14.4592C23.0192 14.5613 23.0284 14.721 22.9449 14.8335L22.9171 14.8658L18.7004 19.0825C18.5984 19.1845 18.4386 19.1938 18.3261 19.1103L18.2938 19.0825L16.3772 17.1658C16.2649 17.0535 16.2649 16.8715 16.3772 16.7592C16.4792 16.6571 16.639 16.6479 16.7515 16.7314L16.7838 16.7592L18.4971 18.4725L22.5105 14.4592Z" fill="#555555"/>
<path d="M22.5105 14.4592L22.5812 14.5299L22.5812 14.5299L22.5105 14.4592ZM22.9171 14.4592L22.8464 14.5299L22.9171 14.4592ZM22.9449 14.8335L23.0208 14.8991L23.0252 14.8931L22.9449 14.8335ZM22.9171 14.8658L22.988 14.9367L22.9928 14.9311L22.9171 14.8658ZM18.7004 19.0825L18.6297 19.0117L18.7004 19.0825ZM18.3261 19.1103L18.2606 19.1862L18.2665 19.1906L18.3261 19.1103ZM18.2938 19.0825L18.2229 19.1534L18.2285 19.1582L18.2938 19.0825ZM16.3772 17.1658L16.3065 17.2365H16.3065L16.3772 17.1658ZM16.3772 16.7592L16.3065 16.6885L16.3772 16.7592ZM16.7515 16.7314L16.817 16.6555L16.8111 16.6511L16.7515 16.7314ZM16.7838 16.7592L16.8547 16.6883L16.8491 16.6835L16.7838 16.7592ZM18.4971 18.4725L18.4264 18.5432L18.4971 18.6139L18.5678 18.5432L18.4971 18.4725ZM22.5812 14.5299C22.6544 14.4567 22.7732 14.4567 22.8464 14.5299L22.9878 14.3885C22.8365 14.2372 22.5911 14.2372 22.4398 14.3885L22.5812 14.5299ZM22.8464 14.5299C22.9129 14.5964 22.919 14.7006 22.8646 14.774L23.0252 14.8931C23.1379 14.7414 23.1254 14.5261 22.9878 14.3885L22.8464 14.5299ZM22.8692 14.7682L22.8414 14.8004L22.9928 14.9311L23.0206 14.8989L22.8692 14.7682ZM22.8464 14.7951L18.6297 19.0117L18.7711 19.1532L22.9878 14.9365L22.8464 14.7951ZM18.6297 19.0117C18.5632 19.0783 18.459 19.0844 18.3857 19.03L18.2665 19.1906C18.4183 19.3032 18.6335 19.2908 18.7711 19.1532L18.6297 19.0117ZM18.3914 19.0346L18.3592 19.0068L18.2285 19.1582L18.2607 19.186L18.3914 19.0346ZM18.3646 19.0117L16.4479 17.0951L16.3065 17.2365L18.2231 19.1532L18.3646 19.0117ZM16.4479 17.0951C16.3747 17.0219 16.3747 16.9031 16.4479 16.8299L16.3065 16.6885C16.1551 16.8398 16.1551 17.0852 16.3065 17.2365L16.4479 17.0951ZM16.4479 16.8299C16.5144 16.7634 16.6186 16.7573 16.6919 16.8117L16.8111 16.6511C16.6593 16.5384 16.4441 16.5509 16.3065 16.6885L16.4479 16.8299ZM16.6862 16.8071L16.7184 16.8349L16.8491 16.6835L16.8169 16.6557L16.6862 16.8071ZM16.7131 16.8299L18.4264 18.5432L18.5678 18.4017L16.8545 16.6885L16.7131 16.8299ZM18.5678 18.5432L22.5812 14.5299L22.4398 14.3885L18.4264 18.4017L18.5678 18.5432Z" fill="#555555"/>
</svg>
