<svg width="194" height="201" viewBox="0 0 194 201" fill="none" xmlns="http://www.w3.org/2000/svg">
<path d="M15.4977 80.7587L17.3471 84.3549L15.4977 80.7587ZM120.918 26.5462L119.069 22.9499L120.918 26.5462ZM179.36 140.191L177.511 136.595L179.36 140.191ZM73.9396 194.404L75.7889 198L73.9396 194.404ZM47.9001 186.051L44.3039 187.9L47.9001 186.051ZM7.14463 106.798L10.7409 104.949L7.14463 106.798ZM146.958 34.8993L143.362 36.7486L146.958 34.8993ZM187.713 114.152L184.117 116.001V116.001L187.713 114.152ZM82.3157 10.4559L79.3925 7.66176V7.66176L82.3157 10.4559ZM108.586 8.88988L111.157 5.7682L111.157 5.7682L108.586 8.88988ZM144.905 119.149L143.055 115.552L144.905 119.149ZM125.658 112.975L122.062 114.824L125.658 112.975ZM186.219 81.8313L189.815 79.982L186.219 81.8313ZM180.045 101.078L181.894 104.674L180.045 101.078ZM153.515 49.489L151.666 45.8928L153.515 49.489ZM172.762 55.6631L169.166 57.5124L172.762 55.6631ZM118.375 67.5599L120.225 71.1561L118.375 67.5599ZM112.201 86.8064L115.797 84.9571L112.201 86.8064ZM141.867 84.0089C139.881 85.0303 139.099 87.4683 140.12 89.4545C141.141 91.4406 143.579 92.2227 145.566 91.2014L141.867 84.0089ZM159.951 83.8039C161.937 82.7826 162.719 80.3445 161.697 78.3584C160.676 76.3722 158.238 75.5901 156.252 76.6115L159.951 83.8039ZM17.3471 84.3549L122.768 30.1424L119.069 22.9499L13.6484 77.1625L17.3471 84.3549ZM177.511 136.595L72.0902 190.807L75.7889 198L181.21 143.787L177.511 136.595ZM51.4964 184.201L10.7409 104.949L3.54841 108.647L44.3039 187.9L51.4964 184.201ZM143.362 36.7486L151.051 51.7019L158.244 48.0032L150.554 33.0499L143.362 36.7486ZM177.389 102.917L184.117 116.001L191.31 112.302L184.581 99.2182L177.389 102.917ZM72.0902 190.807C64.5791 194.67 55.3589 191.712 51.4964 184.201L44.3039 187.9C50.2092 199.383 64.3055 203.905 75.7889 198L72.0902 190.807ZM181.21 143.787C192.693 137.882 197.215 123.786 191.31 112.302L184.117 116.001C187.98 123.512 185.022 132.732 177.511 136.595L181.21 143.787ZM122.768 30.1424C130.279 26.2798 139.499 29.2375 143.362 36.7486L150.554 33.0499C144.649 21.5665 130.552 17.0446 119.069 22.9499L122.768 30.1424ZM13.6484 77.1625C2.165 83.0678 -2.35691 97.1641 3.54841 108.647L10.7409 104.949C6.87828 97.4377 9.83599 88.2175 17.3471 84.3549L13.6484 77.1625ZM17.6732 83.9376L85.239 13.2501L79.3925 7.66176L11.8267 78.3493L17.6732 83.9376ZM106.016 12.0116L123.955 26.7844L129.097 20.5411L111.157 5.7682L106.016 12.0116ZM85.239 13.2501C90.7722 7.46133 99.8339 6.92114 106.016 12.0116L111.157 5.7682C101.706 -2.01432 87.8518 -1.18844 79.3925 7.66176L85.239 13.2501ZM120.225 71.1561L155.365 53.0853L151.666 45.8928L116.526 63.9637L120.225 71.1561ZM169.166 57.5124L182.623 83.6807L189.815 79.982L176.358 53.8137L169.166 57.5124ZM178.196 97.4817L143.055 115.552L146.754 122.745L181.894 104.674L178.196 97.4817ZM129.254 111.125L115.797 84.9571L108.605 88.6558L122.062 114.824L129.254 111.125ZM143.055 115.552C138.022 118.141 131.843 116.159 129.254 111.125L122.062 114.824C126.693 123.83 137.748 127.376 146.754 122.745L143.055 115.552ZM182.623 83.6807C185.211 88.7143 183.229 94.8932 178.196 97.4817L181.894 104.674C190.9 100.043 194.446 88.9878 189.815 79.982L182.623 83.6807ZM155.365 53.0853C160.398 50.4968 166.577 52.4789 169.166 57.5124L176.358 53.8137C171.727 44.8079 160.672 41.2616 151.666 45.8928L155.365 53.0853ZM116.526 63.9637C107.52 68.5949 103.974 79.6499 108.605 88.6558L115.797 84.9571C113.209 79.9235 115.191 73.7446 120.225 71.1561L116.526 63.9637ZM145.566 91.2014L159.951 83.8039L156.252 76.6115L141.867 84.0089L145.566 91.2014Z" fill="url(#paint0_linear_629_17411)" fill-opacity="0.3"/>
<defs>
<linearGradient id="paint0_linear_629_17411" x1="34.145" y1="30.3842" x2="168.614" y2="158.096" gradientUnits="userSpaceOnUse">
<stop stop-color="white"/>
<stop offset="1" stop-color="white" stop-opacity="0"/>
</linearGradient>
</defs>
</svg>
