<svg width="11" height="10" viewBox="0 0 11 10" fill="none" xmlns="http://www.w3.org/2000/svg">
<g clip-path="url(#clip0_442_13682)">
<path d="M4.11447 9.97626C4.24819 10.0328 4.40367 9.9856 4.48178 9.86355L8.03561 4.27761C8.09317 4.1872 8.09664 4.07304 8.04458 3.97978C7.99251 3.88623 7.89303 3.82814 7.78515 3.82814H5.41332L6.29542 0.365073C6.331 0.225171 6.25897 0.0806784 6.12507 0.0237448C5.99204 -0.0328958 5.83557 0.0145847 5.75776 0.13646L2.20392 5.7224C2.14637 5.81281 2.1429 5.92697 2.19496 6.02023C2.24702 6.11378 2.34651 6.17187 2.45439 6.17187H4.82622L3.94412 9.63494C3.90854 9.77486 3.98055 9.91933 4.11447 9.97626Z" fill="#F96446"/>
</g>
<defs>
<clipPath id="clip0_442_13682">
<rect width="10.1087" height="10" fill="white" transform="translate(0.0654297)"/>
</clipPath>
</defs>
</svg>
