<svg id="sort" xmlns="http://www.w3.org/2000/svg" width="10.5" height="15.75" viewBox="0 0 10.5 15.75">
  <path id="Combined_Shape" data-name="Combined Shape" d="M4.72,15.53l-4.5-4.5-.062-.07a.751.751,0,0,1,.062-.99L.29,9.907a.751.751,0,0,1,.99.063l3.97,3.969L9.22,9.97l.07-.063a.75.75,0,0,1,.99,1.123l-4.5,4.5-.07.062a.751.751,0,0,1-.99-.062Zm4.5-9.75L5.25,1.811,1.281,5.78l-.071.063A.75.75,0,0,1,.219,4.72l4.5-4.5L4.791.157a.75.75,0,0,1,.99.062l4.5,4.5.063.071a.75.75,0,0,1-.063.99l-.071.063a.749.749,0,0,1-.99-.063Z" fill="#fff"/>
</svg>
