<svg xmlns="http://www.w3.org/2000/svg" width="19.445" height="19.445" viewBox="0 0 19.445 19.445">
  <g id="Group_157604" data-name="Group 157604" transform="translate(-315 -620)">
    <path id="Combined_Shape" data-name="Combined Shape" d="M6.192,13.335l0-.065V7.219H.48A.5.5,0,0,1,0,6.7a.506.506,0,0,1,.415-.511l.065,0H6.188V.48A.5.5,0,0,1,6.7,0a.5.5,0,0,1,.511.415l0,.065V6.188h6.052a.5.5,0,0,1,.479.516.5.5,0,0,1-.415.511l-.065,0H7.219v6.052a.5.5,0,0,1-.515.479A.505.505,0,0,1,6.192,13.335Z" transform="translate(324.723 620) rotate(45)" fill="#fff"/>
  </g>
</svg>
