<?xml version="1.0" encoding="utf-8"?>
<!-- Generator: Adobe Illustrator 26.3.1, SVG Export Plug-In . SVG Version: 6.00 Build 0)  -->
<svg version="1.1" id="Layer_1" xmlns="http://www.w3.org/2000/svg" xmlns:xlink="http://www.w3.org/1999/xlink" x="0px" y="0px"
	 viewBox="0 0 60 60" style="enable-background:new 0 0 60 60;" xml:space="preserve">
<style type="text/css">
	.st0{fill:#FFFFFF;}
	.st1{fill:#010101;}
</style>
<g>
	<circle class="st0" cx="30" cy="30" r="30"/>
	<g>
		<path class="st1" d="M30,21c2.9,0,3.3,0,4.4,0.1c1.1,0,1.6,0.2,2,0.4c0.5,0.2,0.9,0.4,1.3,0.8c0.4,0.4,0.6,0.7,0.8,1.3
			c0.2,0.4,0.3,1,0.4,2C39,26.7,39,27.1,39,30s0,3.3-0.1,4.4c0,1.1-0.2,1.6-0.4,2c-0.2,0.5-0.4,0.9-0.8,1.3
			c-0.4,0.4-0.7,0.6-1.3,0.8c-0.4,0.2-1,0.3-2,0.4C33.3,39,32.9,39,30,39s-3.3,0-4.4-0.1c-1.1,0-1.6-0.2-2-0.4
			c-0.5-0.2-0.9-0.4-1.3-0.8c-0.4-0.4-0.6-0.7-0.8-1.3c-0.1-0.4-0.3-1-0.4-2C21,33.3,21,32.9,21,30s0-3.3,0.1-4.4
			c0-1.1,0.2-1.6,0.4-2c0.2-0.5,0.4-0.9,0.8-1.3c0.4-0.4,0.7-0.6,1.3-0.8c0.4-0.1,1-0.3,2-0.4C26.7,21,27.1,21,30,21 M30,19
			c-3,0-3.3,0-4.5,0.1c-1.2,0.1-2,0.2-2.7,0.5c-0.7,0.3-1.3,0.7-1.9,1.3c-0.6,0.6-1,1.2-1.3,1.9c-0.3,0.7-0.5,1.5-0.5,2.7
			C19.1,26.7,19,27,19,30s0,3.3,0.1,4.5c0.1,1.2,0.2,2,0.5,2.7c0.3,0.7,0.7,1.3,1.3,1.9c0.6,0.6,1.2,1,1.9,1.3
			c0.7,0.3,1.5,0.5,2.7,0.5C26.7,40.9,27,41,30,41s3.3,0,4.5-0.1c1.2-0.1,2-0.2,2.7-0.5c0.7-0.3,1.3-0.7,1.9-1.3
			c0.6-0.6,1-1.2,1.3-1.9c0.3-0.7,0.5-1.5,0.5-2.7C40.9,33.3,41,33,41,30s0-3.3-0.1-4.5c-0.1-1.2-0.2-2-0.5-2.7
			c-0.3-0.7-0.7-1.3-1.3-1.9c-0.6-0.6-1.2-1-1.9-1.3c-0.7-0.3-1.5-0.5-2.7-0.5C33.3,19.1,33,19,30,19L30,19L30,19z"/>
		<path class="st1" d="M30,24.4c-3.1,0-5.6,2.5-5.6,5.6s2.5,5.6,5.6,5.6s5.6-2.5,5.6-5.6S33.1,24.4,30,24.4z M30,33.6
			c-2,0-3.6-1.6-3.6-3.6s1.6-3.6,3.6-3.6s3.6,1.6,3.6,3.6S32,33.6,30,33.6z"/>
		<circle class="st1" cx="35.8" cy="24.2" r="1.3"/>
	</g>
</g>
</svg>
