<?xml version="1.0" encoding="utf-8"?>
<!-- Generator: Adobe Illustrator 26.3.1, SVG Export Plug-In . SVG Version: 6.00 Build 0)  -->
<svg version="1.1" id="Layer_1" xmlns="http://www.w3.org/2000/svg" xmlns:xlink="http://www.w3.org/1999/xlink" x="0px" y="0px"
	 viewBox="0 0 60 60" style="enable-background:new 0 0 60 60;" xml:space="preserve">
<style type="text/css">
	.st0{fill:#FFFFFF;}
	.st1{fill:#010101;}
</style>
<g>
	<circle class="st0" cx="30" cy="30" r="30"/>
	<g>
		<path d="M39.1,24.8c-1.2,0-2.3-0.4-3.2-1.1c-1-0.8-1.7-1.9-2-3.2c-0.1-0.3-0.1-0.6-0.1-1h-3.4v9.2l0,5.1c0,1.4-0.9,2.5-2.1,2.9
			C28,37,27.6,37,27.2,37c-0.5,0-1-0.2-1.4-0.4c-0.9-0.5-1.5-1.5-1.5-2.6c0-1.7,1.4-3.1,3.1-3.1c0.3,0,0.7,0.1,1,0.2v-2.5v-0.9
			c-0.3,0-0.6-0.1-1-0.1c-1.9,0-3.6,0.8-4.9,2.2c-0.9,1.1-1.5,2.4-1.6,3.8c-0.1,1.9,0.6,3.6,1.9,4.9c0.2,0.2,0.4,0.4,0.6,0.5
			c1.1,0.9,2.5,1.3,4,1.3c0.3,0,0.7,0,1-0.1c1.4-0.2,2.6-0.8,3.6-1.8c1.2-1.2,1.9-2.8,1.9-4.5l0-7.6c0.6,0.4,1.2,0.8,1.9,1.1
			c1.1,0.4,2.2,0.7,3.3,0.7v-2.5L39.1,24.8C39.1,24.8,39.1,24.8,39.1,24.8L39.1,24.8z"/>
	</g>
</g>
</svg>
