<?xml version="1.0" encoding="utf-8"?>
<!-- Generator: Adobe Illustrator 26.3.1, SVG Export Plug-In . SVG Version: 6.00 Build 0)  -->
<svg version="1.1" id="Layer_1" xmlns="http://www.w3.org/2000/svg" xmlns:xlink="http://www.w3.org/1999/xlink" x="0px" y="0px"
	 viewBox="0 0 60 60" style="enable-background:new 0 0 60 60;" xml:space="preserve">
<style type="text/css">
	.st0{fill:#FFFFFF;}
	.st1{fill:#010101;}
</style>
<g>
	<circle class="st0" cx="30" cy="30" r="30"/>
	<g>
		<g>
			<path class="st1" d="M25.5,35.2c-0.3,0-0.7-0.1-1-0.1c0,0-0.1,0-0.1,0c-1.5-0.4-2.8-1.6-3.2-3.1c0.7,0.1,1.4,0.1,2.1-0.1
				c-2.1-0.4-3.8-2.5-3.7-4.6c0.3,0.2,0.6,0.3,1,0.4c0.4,0.1,0.8,0.2,1.1,0.2c-0.9-0.6-1.6-1.5-1.9-2.6c-0.1-0.4-0.2-0.9-0.2-1.4
				c0-0.8,0.2-1.6,0.6-2.3c1.7,2.1,4.1,3.7,6.7,4.4c0.1,0,0.1,0,0.2,0c0,0,0.1,0,0.1,0c0.2,0.1,0.5,0.1,0.7,0.2
				c0.5,0.1,0.9,0.1,1.4,0.2c0.2,0,0.4,0,0.6,0c0,0,0-0.1,0-0.1c0-0.1,0-0.1,0-0.2c0-0.4-0.1-0.9,0-1.3c0.3-2.9,3.3-4.8,6-4
				c0,0,0.1,0,0.1,0c0,0,0.1,0,0.1,0c0,0,0.1,0,0.1,0c0.5,0.2,1,0.5,1.5,0.8c0.2,0.1,0.3,0.4,0.5,0.3c0.1,0,0.2,0,0.2-0.1
				c0,0,0.1,0,0.2-0.1c0.1,0,0.1,0,0.2,0c0,0,0.1,0,0.2-0.1c0.7-0.2,1.4-0.5,2-0.9c-0.2,1-1.1,2-2,2.6c0.4,0,0.8-0.1,1.2-0.2
				c0.5-0.1,1-0.3,1.4-0.5c0,0,0,0,0,0c-0.6,0.9-1.4,1.7-2.3,2.4c0,0.6,0,1.1,0,1.7c-0.1,0.5-0.1,1-0.2,1.5c0,0.1,0,0.2,0,0.2
				c0,0.1,0,0.1-0.1,0.2c0,0,0,0.1,0,0.1c0,0,0,0.1,0,0.1c0,0.1-0.1,0.2-0.1,0.3c0,0,0,0.1-0.1,0.2c-1.3,4.6-5.1,8.3-9.7,9.3
				c-1.9,0.4-3.9,0.4-5.8,0c-0.1,0-0.2,0-0.2,0c-1.5-0.3-2.9-0.9-4.2-1.8c1.1,0.1,2.2,0,3.3-0.2c0,0,0.1,0,0.1,0
				C23.3,36.6,24.5,36.1,25.5,35.2z"/>
		</g>
	</g>
</g>
</svg>
