<svg width="18" height="20" viewBox="0 0 18 20" fill="none" xmlns="http://www.w3.org/2000/svg">
<path fill-rule="evenodd" clip-rule="evenodd" d="M4.125 19.2497C2.9205 19.2497 1.91648 18.3092 1.8381 17.1088L1.83315 16.9587V4.58369H0.4587C0.20542 4.58369 0 4.37826 0 4.12499C0 3.89977 0.16253 3.71249 0.3762 3.67372L0.4587 3.6663H4.58288V2.29185C4.58288 1.08735 5.52338 0.0825 6.72375 0.00495L6.87473 0H10.5419C11.7464 0 12.7504 0.9405 12.8279 2.14088L12.8329 2.29185V3.6663H16.9587C17.2112 3.6663 17.4166 3.87172 17.4166 4.125C17.4166 4.35022 17.2549 4.5375 17.0404 4.57628L16.9587 4.5837H15.5834V16.9587C15.5834 18.1624 14.6429 19.1672 13.4425 19.2448L13.2916 19.2497L4.125 19.2497ZM2.74973 16.9587C2.74973 17.6707 3.28433 18.2597 3.99218 18.3274L4.125 18.3331H13.2916C14.0044 18.3331 14.5926 17.7994 14.6602 17.0907L14.6669 16.9587V4.58369H12.375H5.04158H2.74973V16.9587ZM11.9163 3.66628V2.29183C11.9163 1.57985 11.3825 0.99081 10.6739 0.92315L10.5419 0.91655H6.87473C6.16275 0.91655 5.57453 1.45032 5.50606 2.159L5.49946 2.29183V3.66628H11.9163ZM10.0913 14.2906L10.0832 14.2081V8.70868C10.0832 8.4554 10.3073 8.24998 10.5836 8.24998C10.8293 8.24998 11.0328 8.41251 11.0751 8.62618L11.0832 8.70868V14.2081C11.0832 14.4614 10.8599 14.6668 10.5836 14.6668C10.3379 14.6668 10.1336 14.5043 10.0913 14.2906H10.0913ZM6.42496 14.2906L6.41686 14.2081V8.70868C6.41686 8.4554 6.64098 8.24998 6.91641 8.24998C7.16213 8.24998 7.36645 8.41251 7.40875 8.62618L7.41686 8.70868V14.2081C7.41686 14.4614 7.19273 14.6668 6.91641 14.6668C6.67158 14.6668 6.46727 14.5043 6.42496 14.2906Z" fill="white"/>
</svg>
