<svg width="62" height="62" viewBox="0 0 62 62" fill="none" xmlns="http://www.w3.org/2000/svg">
<path d="M41.4664 29.4876L38.1721 21.2159C38.1022 21.0401 37.903 20.9543 37.7272 21.0242L24.3625 26.3459C24.2556 26.3921 24.1591 26.4748 24.0963 26.573C24.0627 26.6256 24.0436 26.6874 24.043 26.7522V35.6574C24.043 35.8465 24.1963 35.9999 24.3855 35.9999H38.7708C38.96 35.9999 39.1133 35.8465 39.1133 35.6574V33.1208C39.1133 31.7157 39.9699 30.4526 41.2752 29.9327C41.4509 29.8626 41.5365 29.6634 41.4664 29.4876ZM38.4283 31.3149C38.4283 33.524 36.6374 35.3149 34.4283 35.3149H28.728C26.5188 35.3149 24.728 33.524 24.728 31.3149V31.0947C24.728 28.8855 26.5188 27.0947 28.728 27.0947H34.4283C36.6374 27.0947 38.4283 28.8855 38.4283 31.0947V31.3149ZM35.2219 26.4114C34.0666 26.4114 33.7605 24.8164 34.8337 24.3887C35.2318 24.2301 35.6773 24.3471 36.0426 24.571C36.3274 24.7456 36.6426 24.8668 36.9724 24.9276C37.2615 24.981 37.5274 25.1518 37.6361 25.425C37.8241 25.8979 37.4757 26.4114 36.9668 26.4114H35.2219ZM40.0614 29.6799C39.6071 29.8611 39.1133 29.5265 39.1133 29.0373V26.7522C39.1133 26.563 38.96 26.4097 38.7708 26.4097C38.7675 26.4097 38.7645 26.4076 38.7633 26.4046L38.0396 24.5868C38.0237 24.5568 38.0088 24.526 37.9965 24.4944C37.9431 24.3568 37.8046 24.2676 37.6536 24.2799C36.9626 24.3429 36.2867 24.0519 35.8578 23.5066C35.7615 23.3877 35.5994 23.3494 35.4621 23.4075C35.4323 23.4201 35.4015 23.4309 35.3701 23.4387L28.3685 26.2268C28.3592 26.2304 28.3501 26.2344 28.3413 26.2388C28.2112 26.3035 28.0861 26.4097 27.9409 26.4097C27.5422 26.4097 27.4367 25.8592 27.8071 25.7117L35.7947 22.5312C36.8262 22.1205 37.9955 22.6237 38.4063 23.6552L40.4478 28.7814C40.5891 29.1362 40.4161 29.5384 40.0614 29.6799Z" fill="#555555"/>
<path d="M25.6576 33.0026C26.3226 33.1991 26.843 33.7188 27.0403 34.3836C27.0836 34.5287 27.2171 34.6281 27.3685 34.6281C27.3703 34.628 27.3721 34.6279 27.3739 34.6277C27.4052 34.6252 27.437 34.6259 27.4681 34.6298H35.6883C35.7161 34.6262 35.7443 34.6256 35.7722 34.6286C35.9286 34.6452 36.0771 34.5439 36.1154 34.3868C36.1155 34.3862 36.1157 34.3856 36.1158 34.3849C36.3126 33.7195 36.8331 33.1991 37.4985 33.0022C37.6431 32.958 37.7387 32.8242 37.7377 32.677C37.7375 32.6429 37.7393 32.6086 37.7434 32.5748V29.8347C37.7394 29.8009 37.7372 29.7665 37.7374 29.7325C37.7385 29.5852 37.6429 29.4514 37.4981 29.4073C36.8327 29.2104 36.3124 28.6898 36.1161 28.0242C36.0714 27.8777 35.9349 27.7815 35.7857 27.7846C35.7532 27.7853 35.7206 27.7836 35.6883 27.7797H27.4681C27.4341 27.7837 27.3995 27.7859 27.3652 27.7857C27.2181 27.785 27.0846 27.8805 27.0403 28.0249C26.8434 28.6902 26.323 29.2104 25.6576 29.4073C25.513 29.4515 25.4174 29.5853 25.4184 29.7326C25.4186 29.7666 25.4169 29.8009 25.4131 29.8347V32.5748C25.417 32.6066 25.4188 32.6387 25.4181 32.6707C25.4146 32.8205 25.5108 32.9575 25.6576 33.0026ZM26.0981 31.0703C26.0981 30.4079 26.5385 29.842 27.007 29.3735C27.4754 28.9051 28.0413 28.4647 28.7038 28.4647H34.4524C35.1148 28.4647 35.6808 28.905 36.1493 29.3735C36.6178 29.842 37.0584 30.408 37.0584 31.0706V31.3392C37.0584 32.0017 36.6181 32.5677 36.1497 33.0361C35.6812 33.5046 35.1153 33.9448 34.4528 33.9448H28.7037C28.0412 33.9448 27.4752 33.5046 27.0068 33.0361C26.5383 32.5677 26.0981 32.0017 26.0981 31.3392V31.0703Z" fill="#555555"/>
<path d="M31.5785 33.26C32.7135 33.26 33.6335 32.3399 33.6335 31.205C33.6335 30.07 32.7135 29.1499 31.5785 29.1499C30.4435 29.1499 29.5234 30.07 29.5234 31.205C29.5246 32.3395 30.444 33.2589 31.5785 33.26ZM31.5785 29.8349C32.3351 29.8349 32.9485 30.4483 32.9485 31.205C32.9485 31.9616 32.3351 32.575 31.5785 32.575C30.8218 32.575 30.2085 31.9616 30.2085 31.205C30.2085 30.4483 30.8218 29.8349 31.5785 29.8349Z" fill="#555555"/>
<path d="M27.8106 31.7186C28.0944 31.7186 28.3244 31.4885 28.3244 31.2048C28.3244 30.9211 28.0944 30.691 27.8106 30.691C27.5269 30.691 27.2969 30.9211 27.2969 31.2048C27.2969 31.4886 27.5269 31.7186 27.8106 31.7186ZM27.8106 31.0335C27.9052 31.0335 27.9819 31.1102 27.9819 31.2048C27.9819 31.2994 27.9052 31.3761 27.8106 31.3761C27.7161 31.3761 27.6394 31.2994 27.6394 31.2048C27.6394 31.1102 27.7161 31.0335 27.8106 31.0335Z" fill="#555555"/>
<path d="M35.3458 31.7186C35.6295 31.7186 35.8596 31.4885 35.8596 31.2048C35.8596 30.9211 35.6295 30.691 35.3458 30.691C35.0621 30.691 34.832 30.9211 34.832 31.2048C34.832 31.4886 35.0621 31.7186 35.3458 31.7186ZM35.3458 31.0335C35.4404 31.0335 35.517 31.1102 35.517 31.2048C35.517 31.2994 35.4404 31.3761 35.3458 31.3761C35.2512 31.3761 35.1745 31.2994 35.1745 31.2048C35.1745 31.1102 35.2512 31.0335 35.3458 31.0335Z" fill="#555555"/>
<path fill-rule="evenodd" clip-rule="evenodd" d="M24.0398 42.2907L22.765 44.1235C22.4969 44.5351 21.8213 44.4801 21.6259 44.0274L19.1791 38.8224C18.9567 38.3831 19.3415 37.8275 19.8318 37.884L25.5629 38.3671C26.0544 38.3933 26.343 39.0063 26.0493 39.4017L24.7935 41.207C30.7901 44.9572 38.7639 43.3718 42.8456 37.5035C52.3668 22.5318 31.6267 8.10492 20.9018 22.2404C20.3968 22.9472 19.3338 22.203 19.8181 21.4867C24.4418 14.8393 33.6112 13.1925 40.259 17.8164C55.5079 29.32 40.5177 51.8455 24.0398 42.2907Z" fill="#555555"/>
</svg>
